<svg width="1440" height="290" viewBox="0 0 1440 290" fill="none" xmlns="http://www.w3.org/2000/svg">
<g clip-path="url(#clip0_7558_1976)">
<path d="M1440 0.906252V140.734C1440 141.151 1439.85 141.51 1439.63 141.61C1298.54 204.644 1038.77 251.72 772 264.636C515.192 277.072 186.99 288.955 0.417568 238.893C0.172458 238.828 0 238.449 0 238V0.906252C0 0.405743 0.223821 0 0.499964 0H1439.5C1439.78 0 1440 0.405743 1440 0.906252Z" fill="#0D004D"/>
<path fill-rule="evenodd" clip-rule="evenodd" d="M1439.63 141.61C1439.85 141.51 1440 141.151 1440 140.734V153.302C1440 153.719 1439.85 154.078 1439.63 154.178C1298.55 217.169 1040.77 270.273 774 283.178C517.192 295.603 186.993 295.336 0.417437 245.301C0.172302 245.235 0 244.856 0 244.407V238C0 238.449 0.172458 238.828 0.417568 238.893C186.99 288.953 515.192 277.072 772 264.636C1038.77 251.72 1298.54 204.644 1439.63 141.61Z" fill="#DAD8FF"/>
<g clip-path="url(#clip1_7558_1976)">
<g opacity="0.3">
<path d="M1271.06 106.312C1271.18 107.016 1271.35 107.693 1271.49 108.37C1271.6 108.145 1271.66 107.899 1271.66 107.652C1271.67 107.11 1271.44 106.63 1271.06 106.312Z" fill="#8E84DC"/>
<path d="M1271.94 95.9431C1271.96 94.9748 1271.19 94.1665 1270.2 94.1434C1270.02 94.1393 1269.81 94.1551 1269.66 94.22C1269.7 95.3685 1269.76 96.4969 1269.84 97.6257L1269.84 97.6463C1269.93 97.669 1270.02 97.6711 1270.11 97.6732C1271.1 97.6963 1271.91 96.925 1271.93 95.936L1271.94 95.9431Z" fill="#8E84DC"/>
<path d="M1272.21 84.2341C1272.23 83.2658 1271.46 82.4576 1270.47 82.4345C1270.38 82.4324 1270.29 82.4303 1270.2 82.4489L1270.2 82.4695C1270.07 83.5932 1269.95 84.7172 1269.86 85.8626C1270.01 85.935 1270.21 85.9602 1270.4 85.9645C1271.39 85.9877 1272.19 85.2163 1272.22 84.2274L1272.21 84.2341Z" fill="#8E84DC"/>
<path d="M1272.34 71.8004C1272.17 72.4697 1271.97 73.166 1271.82 73.8633C1272.21 73.5563 1272.47 73.0676 1272.48 72.5251C1272.49 72.2573 1272.43 72.0291 1272.34 71.8004Z" fill="#8E84DC"/>
<path d="M1276.82 123.611C1277.26 124.5 1277.7 125.39 1278.18 126.254C1278.33 126.01 1278.42 125.696 1278.43 125.38C1278.45 124.46 1277.75 123.674 1276.83 123.611L1276.82 123.611Z" fill="#8E84DC"/>
<path d="M1275.17 113.595C1275.15 114.57 1275.92 115.378 1276.89 115.401C1277.87 115.424 1278.67 114.653 1278.7 113.678C1278.72 112.702 1277.95 111.894 1276.97 111.871C1276 111.849 1275.19 112.62 1275.17 113.595Z" fill="#8E84DC"/>
<path d="M1275.44 101.886C1275.42 102.862 1276.19 103.67 1277.17 103.693C1278.14 103.715 1278.95 102.944 1278.97 101.969C1278.99 100.994 1278.22 100.185 1277.25 100.163C1276.27 100.14 1275.47 100.911 1275.44 101.886Z" fill="#8E84DC"/>
<path d="M1275.72 90.1772C1275.69 91.1524 1276.47 91.9606 1277.44 91.9834C1278.41 92.0062 1279.22 91.2349 1279.24 90.2597C1279.27 89.2845 1278.5 88.4763 1277.52 88.4535C1276.55 88.4307 1275.74 89.202 1275.72 90.1772Z" fill="#8E84DC"/>
<path d="M1275.99 78.4683C1275.97 79.4435 1276.74 80.2517 1277.71 80.2745C1278.69 80.2972 1279.5 79.526 1279.52 78.5508C1279.54 77.5756 1278.77 76.7674 1277.8 76.7446C1276.82 76.7218 1276.01 77.4931 1275.99 78.4683Z" fill="#8E84DC"/>
<path d="M1276.26 66.7591C1276.24 67.7343 1277.01 68.5425 1277.99 68.5653C1278.96 68.5881 1279.77 67.8168 1279.79 66.8416C1279.82 65.8664 1279.04 65.0582 1278.07 65.0354C1277.1 65.0127 1276.29 65.784 1276.26 66.7591Z" fill="#8E84DC"/>
<path d="M1280.07 55.1261C1280.08 54.8102 1280 54.4922 1279.85 54.2412C1279.35 55.1092 1278.86 55.9772 1278.39 56.8458C1279.31 56.8192 1280.05 56.0532 1280.07 55.1261Z" fill="#8E84DC"/>
<path d="M1283.02 131.355C1283 132.331 1283.77 133.139 1284.74 133.162C1285.72 133.184 1286.53 132.413 1286.55 131.438C1286.57 130.463 1285.8 129.654 1284.83 129.632C1283.85 129.609 1283.05 130.38 1283.02 131.355Z" fill="#8E84DC"/>
<path d="M1283.3 119.646C1283.27 120.621 1284.04 121.43 1285.02 121.452C1285.99 121.475 1286.8 120.704 1286.82 119.729C1286.85 118.754 1286.08 117.945 1285.1 117.923C1284.13 117.9 1283.32 118.671 1283.3 119.646Z" fill="#8E84DC"/>
<path d="M1283.57 107.937C1283.55 108.913 1284.32 109.721 1285.29 109.744C1286.27 109.766 1287.07 108.995 1287.1 108.02C1287.12 107.045 1286.35 106.237 1285.37 106.214C1284.4 106.191 1283.59 106.962 1283.57 107.937Z" fill="#8E84DC"/>
<path d="M1283.84 96.2283C1283.82 97.2035 1284.59 98.0117 1285.57 98.0345C1286.54 98.0573 1287.35 97.286 1287.37 96.3108C1287.39 95.3356 1286.62 94.5274 1285.65 94.5047C1284.67 94.4819 1283.87 95.2532 1283.84 96.2283Z" fill="#8E84DC"/>
<path d="M1284.12 84.5194C1284.09 85.4946 1284.87 86.3028 1285.84 86.3256C1286.81 86.3484 1287.62 85.5771 1287.65 84.6019C1287.67 83.6267 1286.9 82.8185 1285.92 82.7957C1284.95 82.7729 1284.14 83.5442 1284.12 84.5194Z" fill="#8E84DC"/>
<path d="M1284.39 72.8036C1284.37 73.7787 1285.14 74.5869 1286.11 74.6097C1287.09 74.6325 1287.9 73.8612 1287.92 72.886C1287.94 71.9109 1287.17 71.1027 1286.2 71.0799C1285.22 71.0571 1284.41 71.8284 1284.39 72.8036Z" fill="#8E84DC"/>
<path d="M1284.67 61.0944C1284.64 62.0696 1285.41 62.8778 1286.39 62.9006C1287.36 62.9234 1288.17 62.1521 1288.19 61.1769C1288.22 60.2017 1287.44 59.3935 1286.47 59.3707C1285.5 59.3479 1284.69 60.1192 1284.67 61.0944Z" fill="#8E84DC"/>
<path d="M1284.94 49.3855C1284.92 50.3607 1285.69 51.1689 1286.66 51.1917C1287.64 51.2144 1288.44 50.4431 1288.47 49.468C1288.49 48.4928 1287.72 47.6846 1286.74 47.6618C1285.77 47.639 1284.96 48.4103 1284.94 49.3855Z" fill="#8E84DC"/>
<path d="M1290.06 137.381C1290.04 138.356 1290.81 139.165 1291.79 139.187C1292.76 139.21 1293.57 138.439 1293.59 137.464C1293.61 136.488 1292.84 135.68 1291.87 135.657C1290.89 135.635 1290.09 136.406 1290.06 137.381Z" fill="#8E84DC"/>
<path d="M1290.34 125.672C1290.32 126.647 1291.09 127.456 1292.06 127.478C1293.04 127.501 1293.84 126.73 1293.87 125.755C1293.89 124.779 1293.12 123.971 1292.14 123.949C1291.17 123.926 1290.36 124.697 1290.34 125.672Z" fill="#8E84DC"/>
<path d="M1290.61 113.956C1290.59 114.931 1291.36 115.74 1292.33 115.762C1293.31 115.785 1294.12 115.014 1294.14 114.039C1294.16 113.063 1293.39 112.255 1292.42 112.232C1291.44 112.21 1290.63 112.981 1290.61 113.956Z" fill="#8E84DC"/>
<path d="M1290.89 102.247C1290.86 103.223 1291.63 104.031 1292.61 104.054C1293.58 104.076 1294.39 103.305 1294.41 102.33C1294.44 101.355 1293.67 100.547 1292.69 100.524C1291.72 100.501 1290.91 101.272 1290.89 102.247Z" fill="#8E84DC"/>
<path d="M1291.16 90.5383C1291.14 91.5134 1291.91 92.3217 1292.88 92.3444C1293.86 92.3672 1294.66 91.5959 1294.69 90.6207C1294.71 89.6456 1293.94 88.8374 1292.96 88.8146C1291.99 88.7918 1291.18 89.5631 1291.16 90.5383Z" fill="#8E84DC"/>
<path d="M1291.43 78.8293C1291.41 79.8045 1292.18 80.6127 1293.16 80.6355C1294.13 80.6583 1294.94 79.887 1294.96 78.9118C1294.98 77.9366 1294.21 77.1284 1293.24 77.1057C1292.26 77.0829 1291.46 77.8542 1291.43 78.8293Z" fill="#8E84DC"/>
<path d="M1291.71 67.1202C1291.68 68.0954 1292.45 68.9036 1293.43 68.9264C1294.4 68.9491 1295.21 68.1778 1295.23 67.2027C1295.26 66.2275 1294.49 65.4193 1293.51 65.3965C1292.54 65.3737 1291.73 66.145 1291.71 67.1202Z" fill="#8E84DC"/>
<path d="M1291.98 55.4113C1291.96 56.3864 1292.73 57.1947 1293.7 57.2174C1294.68 57.2402 1295.49 56.4689 1295.51 55.4937C1295.53 54.5186 1294.76 53.7104 1293.79 53.6876C1292.81 53.6648 1292 54.4361 1291.98 55.4113Z" fill="#8E84DC"/>
<path d="M1292.25 43.7023C1292.23 44.6775 1293 45.4857 1293.98 45.5085C1294.95 45.5313 1295.76 44.76 1295.78 43.7848C1295.8 42.8096 1295.03 42.0014 1294.06 41.9787C1293.08 41.9559 1292.28 42.7271 1292.25 43.7023Z" fill="#8E84DC"/>
<path d="M1298.46 131.716C1298.44 132.692 1299.21 133.5 1300.19 133.523C1301.16 133.545 1301.97 132.774 1301.99 131.799C1302.02 130.824 1301.24 130.015 1300.27 129.993C1299.3 129.97 1298.49 130.741 1298.46 131.716Z" fill="#8E84DC"/>
<path d="M1298.74 120.007C1298.72 120.982 1299.49 121.791 1300.46 121.813C1301.44 121.836 1302.24 121.065 1302.27 120.09C1302.29 119.115 1301.52 118.306 1300.54 118.284C1299.57 118.261 1298.76 119.032 1298.74 120.007Z" fill="#8E84DC"/>
<path d="M1299.01 108.299C1298.99 109.274 1299.76 110.082 1300.73 110.105C1301.71 110.128 1302.52 109.356 1302.54 108.381C1302.56 107.406 1301.79 106.598 1300.82 106.575C1299.84 106.552 1299.03 107.323 1299.01 108.299Z" fill="#8E84DC"/>
<path d="M1299.29 96.5894C1299.26 97.5646 1300.03 98.3728 1301.01 98.3956C1301.98 98.4184 1302.79 97.647 1302.81 96.6719C1302.84 95.6967 1302.07 94.8885 1301.09 94.8657C1300.12 94.8429 1299.31 95.6142 1299.29 96.5894Z" fill="#8E84DC"/>
<path d="M1299.56 84.8805C1299.54 85.8556 1300.31 86.6638 1301.28 86.6866C1302.26 86.7094 1303.06 85.9381 1303.09 84.963C1303.11 83.9878 1302.34 83.1796 1301.36 83.1568C1300.39 83.134 1299.58 83.9053 1299.56 84.8805Z" fill="#8E84DC"/>
<path d="M1299.83 73.1646C1299.81 74.1398 1300.58 74.948 1301.56 74.9708C1302.53 74.9936 1303.34 74.2223 1303.36 73.2471C1303.38 72.2719 1302.61 71.4637 1301.64 71.4409C1300.66 71.4181 1299.86 72.1894 1299.83 73.1646Z" fill="#8E84DC"/>
<path d="M1300.11 61.4555C1300.08 62.4306 1300.86 63.2388 1301.83 63.2616C1302.8 63.2844 1303.61 62.5131 1303.64 61.5379C1303.66 60.5628 1302.89 59.7545 1301.91 59.7318C1300.94 59.709 1300.13 60.4803 1300.11 61.4555Z" fill="#8E84DC"/>
<path d="M1300.38 49.7465C1300.36 50.7217 1301.13 51.5299 1302.1 51.5527C1303.08 51.5755 1303.89 50.8042 1303.91 49.829C1303.93 48.8538 1303.16 48.0456 1302.19 48.0228C1301.21 48 1300.4 48.7713 1300.38 49.7465Z" fill="#8E84DC"/>
<path d="M1300.65 38.0376C1300.63 39.0128 1301.4 39.821 1302.38 39.8438C1303.35 39.8665 1304.16 39.0952 1304.18 38.1201C1304.21 37.1449 1303.43 36.3367 1302.46 36.3139C1301.49 36.2911 1300.68 37.0624 1300.65 38.0376Z" fill="#8E84DC"/>
<path d="M1305.51 137.742C1305.49 138.718 1306.26 139.526 1307.24 139.549C1308.21 139.571 1309.02 138.8 1309.04 137.825C1309.06 136.85 1308.29 136.041 1307.32 136.019C1306.34 135.996 1305.54 136.767 1305.51 137.742Z" fill="#8E84DC"/>
<path d="M1305.79 126.033C1305.76 127.009 1306.54 127.817 1307.51 127.84C1308.48 127.862 1309.29 127.091 1309.32 126.116C1309.34 125.141 1308.57 124.333 1307.59 124.31C1306.62 124.287 1305.81 125.058 1305.79 126.033Z" fill="#8E84DC"/>
<path d="M1306.06 114.317C1306.04 115.292 1306.81 116.101 1307.78 116.123C1308.76 116.146 1309.57 115.375 1309.59 114.4C1309.61 113.425 1308.84 112.616 1307.87 112.594C1306.89 112.571 1306.08 113.342 1306.06 114.317Z" fill="#8E84DC"/>
<path d="M1306.33 102.609C1306.31 103.584 1307.08 104.392 1308.06 104.415C1309.03 104.438 1309.84 103.666 1309.86 102.691C1309.89 101.716 1309.11 100.908 1308.14 100.885C1307.17 100.862 1306.36 101.633 1306.33 102.609Z" fill="#8E84DC"/>
<path d="M1306.61 90.8995C1306.59 91.8746 1307.36 92.6828 1308.33 92.7056C1309.31 92.7284 1310.11 91.9571 1310.14 90.9819C1310.16 90.0068 1309.39 89.1986 1308.41 89.1758C1307.44 89.153 1306.63 89.9243 1306.61 90.8995Z" fill="#8E84DC"/>
<path d="M1306.88 79.1906C1306.86 80.1657 1307.63 80.9739 1308.61 80.9967C1309.58 81.0195 1310.39 80.2482 1310.41 79.273C1310.43 78.2978 1309.66 77.4896 1308.69 77.4668C1307.71 77.4441 1306.91 78.2154 1306.88 79.1906Z" fill="#8E84DC"/>
<path d="M1307.16 67.4814C1307.13 68.4566 1307.9 69.2648 1308.88 69.2876C1309.85 69.3103 1310.66 68.539 1310.68 67.5639C1310.71 66.5887 1309.94 65.7805 1308.96 65.7577C1307.99 65.7349 1307.18 66.5062 1307.16 67.4814Z" fill="#8E84DC"/>
<path d="M1307.43 55.7725C1307.41 56.7476 1308.18 57.5558 1309.15 57.5786C1310.13 57.6014 1310.93 56.8301 1310.96 55.8549C1310.98 54.8798 1310.21 54.0716 1309.24 54.0488C1308.26 54.026 1307.45 54.7973 1307.43 55.7725Z" fill="#8E84DC"/>
<path d="M1307.7 44.0635C1307.68 45.0387 1308.45 45.8469 1309.43 45.8697C1310.4 45.8925 1311.21 45.1212 1311.23 44.146C1311.25 43.1708 1310.48 42.3626 1309.51 42.3398C1308.53 42.3171 1307.73 43.0884 1307.7 44.0635Z" fill="#8E84DC"/>
<path d="M1307.98 32.3477C1307.95 33.3228 1308.73 34.1311 1309.7 34.1538C1310.67 34.1766 1311.48 33.4053 1311.51 32.4301C1311.53 31.455 1310.76 30.6468 1309.78 30.624C1308.81 30.6012 1308 31.3725 1307.98 32.3477Z" fill="#8E84DC"/>
<path d="M1313.91 132.077C1313.88 133.053 1314.66 133.861 1315.63 133.884C1316.6 133.906 1317.41 133.135 1317.43 132.16C1317.46 131.185 1316.69 130.377 1315.71 130.354C1314.74 130.331 1313.93 131.102 1313.91 132.077Z" fill="#8E84DC"/>
<path d="M1314.18 120.368C1314.16 121.343 1314.93 122.152 1315.9 122.174C1316.88 122.197 1317.69 121.426 1317.71 120.451C1317.73 119.476 1316.96 118.667 1315.99 118.645C1315.01 118.622 1314.2 119.393 1314.18 120.368Z" fill="#8E84DC"/>
<path d="M1314.45 108.66C1314.43 109.635 1315.2 110.443 1316.18 110.466C1317.15 110.489 1317.96 109.717 1317.98 108.742C1318.01 107.767 1317.23 106.959 1316.26 106.936C1315.29 106.913 1314.48 107.684 1314.45 108.66Z" fill="#8E84DC"/>
<path d="M1314.73 96.9504C1314.71 97.9256 1315.48 98.7338 1316.45 98.7566C1317.43 98.7794 1318.23 98.0081 1318.26 97.0329C1318.28 96.0577 1317.51 95.2495 1316.53 95.2267C1315.56 95.204 1314.75 95.9753 1314.73 96.9504Z" fill="#8E84DC"/>
<path d="M1315 85.2415C1314.98 86.2167 1315.75 87.0249 1316.72 87.0477C1317.7 87.0705 1318.51 86.2992 1318.53 85.324C1318.55 84.3488 1317.78 83.5406 1316.81 83.5178C1315.83 83.495 1315.02 84.2663 1315 85.2415Z" fill="#8E84DC"/>
<path d="M1315.28 73.5256C1315.25 74.5008 1316.02 75.309 1317 75.3318C1317.97 75.3546 1318.78 74.5833 1318.8 73.6081C1318.83 72.6329 1318.06 71.8247 1317.08 71.802C1316.11 71.7792 1315.3 72.5505 1315.28 73.5256Z" fill="#8E84DC"/>
<path d="M1315.55 61.8165C1315.53 62.7917 1316.3 63.5999 1317.27 63.6227C1318.25 63.6454 1319.05 62.8742 1319.08 61.899C1319.1 60.9238 1318.33 60.1156 1317.35 60.0928C1316.38 60.07 1315.57 60.8413 1315.55 61.8165Z" fill="#8E84DC"/>
<path d="M1315.82 50.1076C1315.8 51.0827 1316.57 51.891 1317.55 51.9137C1318.52 51.9365 1319.33 51.1652 1319.35 50.19C1319.37 49.2149 1318.6 48.4066 1317.63 48.3839C1316.65 48.3611 1315.85 49.1324 1315.82 50.1076Z" fill="#8E84DC"/>
<path d="M1316.1 38.3986C1316.07 39.3738 1316.85 40.182 1317.82 40.2048C1318.79 40.2276 1319.6 39.4563 1319.62 38.4811C1319.65 37.5059 1318.88 36.6977 1317.9 36.675C1316.93 36.6522 1316.12 37.4235 1316.1 38.3986Z" fill="#8E84DC"/>
<path d="M1316.37 26.6895C1316.35 27.6647 1317.12 28.4729 1318.09 28.4957C1319.07 28.5184 1319.88 27.7471 1319.9 26.772C1319.92 25.7968 1319.15 24.9886 1318.18 24.9658C1317.2 24.943 1316.39 25.7143 1316.37 26.6895Z" fill="#8E84DC"/>
<path d="M1320.96 138.103C1320.93 139.079 1321.7 139.887 1322.68 139.91C1323.65 139.932 1324.46 139.161 1324.48 138.186C1324.51 137.211 1323.74 136.402 1322.76 136.38C1321.79 136.357 1320.98 137.128 1320.96 138.103Z" fill="#8E84DC"/>
<path d="M1321.23 126.394C1321.21 127.37 1321.98 128.178 1322.95 128.201C1323.93 128.223 1324.73 127.452 1324.76 126.477C1324.78 125.502 1324.01 124.694 1323.03 124.671C1322.06 124.648 1321.25 125.419 1321.23 126.394Z" fill="#8E84DC"/>
<path d="M1321.5 114.678C1321.48 115.654 1322.25 116.462 1323.23 116.485C1324.2 116.507 1325.01 115.736 1325.03 114.761C1325.05 113.786 1324.28 112.977 1323.31 112.955C1322.33 112.932 1321.53 113.703 1321.5 114.678Z" fill="#8E84DC"/>
<path d="M1321.78 102.97C1321.75 103.945 1322.53 104.753 1323.5 104.776C1324.47 104.799 1325.28 104.027 1325.31 103.052C1325.33 102.077 1324.56 101.269 1323.58 101.246C1322.61 101.223 1321.8 101.994 1321.78 102.97Z" fill="#8E84DC"/>
<path d="M1322.05 91.2605C1322.03 92.2357 1322.8 93.0439 1323.77 93.0667C1324.75 93.0895 1325.56 92.3182 1325.58 91.343C1325.6 90.3678 1324.83 89.5596 1323.86 89.5368C1322.88 89.514 1322.07 90.2853 1322.05 91.2605Z" fill="#8E84DC"/>
<path d="M1322.32 79.5516C1322.3 80.5268 1323.07 81.335 1324.05 81.3578C1325.02 81.3805 1325.83 80.6092 1325.85 79.6341C1325.88 78.6589 1325.1 77.8507 1324.13 77.8279C1323.16 77.8051 1322.35 78.5764 1322.32 79.5516Z" fill="#8E84DC"/>
<path d="M1322.6 67.8424C1322.58 68.8176 1323.35 69.6258 1324.32 69.6486C1325.3 69.6714 1326.1 68.9001 1326.13 67.9249C1326.15 66.9497 1325.38 66.1415 1324.4 66.1187C1323.43 66.096 1322.62 66.8673 1322.6 67.8424Z" fill="#8E84DC"/>
<path d="M1322.87 56.1335C1322.85 57.1087 1323.62 57.9169 1324.59 57.9397C1325.57 57.9625 1326.38 57.1912 1326.4 56.216C1326.42 55.2408 1325.65 54.4326 1324.68 54.4098C1323.7 54.387 1322.9 55.1583 1322.87 56.1335Z" fill="#8E84DC"/>
<path d="M1323.15 44.4246C1323.12 45.3998 1323.89 46.208 1324.87 46.2308C1325.84 46.2535 1326.65 45.4822 1326.67 44.507C1326.7 43.5319 1325.93 42.7237 1324.95 42.7009C1323.98 42.6781 1323.17 43.4494 1323.15 44.4246Z" fill="#8E84DC"/>
<path d="M1323.42 32.7087C1323.4 33.6839 1324.17 34.4921 1325.14 34.5149C1326.12 34.5377 1326.92 33.7664 1326.95 32.7912C1326.97 31.816 1326.2 31.0078 1325.23 30.985C1324.25 30.9622 1323.44 31.7335 1323.42 32.7087Z" fill="#8E84DC"/>
<path d="M1327.23 21.0824C1327.24 20.6085 1327.07 20.1786 1326.76 19.8347C1325.74 20.0582 1324.75 20.3029 1323.77 20.5755C1323.72 20.7118 1323.7 20.8418 1323.69 20.9997C1323.67 21.968 1324.44 22.7762 1325.41 22.7989C1326.38 22.8215 1327.21 22.0507 1327.23 21.0824Z" fill="#8E84DC"/>
<path d="M1329.36 132.439C1329.33 133.414 1330.1 134.222 1331.08 134.245C1332.05 134.268 1332.86 133.496 1332.88 132.521C1332.91 131.546 1332.14 130.738 1331.16 130.715C1330.19 130.692 1329.38 131.463 1329.36 132.439Z" fill="#8E84DC"/>
<path d="M1329.63 120.73C1329.61 121.705 1330.38 122.513 1331.35 122.536C1332.33 122.558 1333.13 121.787 1333.16 120.812C1333.18 119.837 1332.41 119.029 1331.44 119.006C1330.46 118.983 1329.65 119.754 1329.63 120.73Z" fill="#8E84DC"/>
<path d="M1329.9 109.021C1329.88 109.996 1330.65 110.804 1331.63 110.827C1332.6 110.85 1333.41 110.078 1333.43 109.103C1333.45 108.128 1332.68 107.32 1331.71 107.297C1330.73 107.274 1329.93 108.046 1329.9 109.021Z" fill="#8E84DC"/>
<path d="M1330.18 97.3116C1330.15 98.2868 1330.93 99.095 1331.9 99.1178C1332.87 99.1406 1333.68 98.3693 1333.71 97.3941C1333.73 96.4189 1332.96 95.6107 1331.98 95.588C1331.01 95.5652 1330.2 96.3365 1330.18 97.3116Z" fill="#8E84DC"/>
<path d="M1330.45 85.6027C1330.43 86.5779 1331.2 87.3861 1332.17 87.4089C1333.15 87.4317 1333.96 86.6604 1333.98 85.6852C1334 84.71 1333.23 83.9018 1332.26 83.879C1331.28 83.8562 1330.47 84.6275 1330.45 85.6027Z" fill="#8E84DC"/>
<path d="M1330.73 73.8869C1330.7 74.862 1331.47 75.6702 1332.45 75.693C1333.42 75.7158 1334.23 74.9445 1334.25 73.9693C1334.28 72.9942 1333.5 72.1859 1332.53 72.1632C1331.56 72.1404 1330.75 72.9117 1330.73 73.8869Z" fill="#8E84DC"/>
<path d="M1331 62.1777C1330.98 63.1529 1331.75 63.9611 1332.72 63.9839C1333.7 64.0067 1334.5 63.2354 1334.53 62.2602C1334.55 61.285 1333.78 60.4768 1332.8 60.454C1331.83 60.4312 1331.02 61.2025 1331 62.1777Z" fill="#8E84DC"/>
<path d="M1331.27 50.4688C1331.25 51.4439 1332.02 52.2522 1333 52.2749C1333.97 52.2977 1334.78 51.5264 1334.8 50.5513C1334.82 49.5761 1334.05 48.7679 1333.08 48.7451C1332.1 48.7223 1331.3 49.4936 1331.27 50.4688Z" fill="#8E84DC"/>
<path d="M1331.55 38.7598C1331.52 39.735 1332.29 40.5432 1333.27 40.566C1334.24 40.5888 1335.05 39.8175 1335.07 38.8423C1335.1 37.8671 1334.33 37.0589 1333.35 37.0362C1332.38 37.0134 1331.57 37.7847 1331.55 38.7598Z" fill="#8E84DC"/>
<path d="M1331.82 27.0507C1331.8 28.0259 1332.57 28.8341 1333.54 28.8569C1334.52 28.8797 1335.33 28.1083 1335.35 27.1332C1335.37 26.158 1334.6 25.3498 1333.63 25.327C1332.65 25.3042 1331.84 26.0755 1331.82 27.0507Z" fill="#8E84DC"/>
<path d="M1336.4 138.464C1336.38 139.44 1337.15 140.248 1338.12 140.271C1339.1 140.293 1339.9 139.522 1339.93 138.547C1339.95 137.572 1339.18 136.764 1338.2 136.741C1337.23 136.718 1336.42 137.489 1336.4 138.464Z" fill="#8E84DC"/>
<path d="M1336.67 126.755C1336.65 127.731 1337.42 128.539 1338.39 128.562C1339.37 128.584 1340.18 127.813 1340.2 126.838C1340.22 125.863 1339.45 125.055 1338.48 125.032C1337.5 125.009 1336.69 125.78 1336.67 126.755Z" fill="#8E84DC"/>
<path d="M1336.95 115.039C1336.92 116.015 1337.69 116.823 1338.67 116.846C1339.64 116.868 1340.45 116.097 1340.47 115.122C1340.5 114.147 1339.73 113.339 1338.75 113.316C1337.78 113.293 1336.97 114.064 1336.95 115.039Z" fill="#8E84DC"/>
<path d="M1337.22 103.331C1337.2 104.306 1337.97 105.114 1338.94 105.137C1339.92 105.16 1340.72 104.388 1340.75 103.413C1340.77 102.438 1340 101.63 1339.02 101.607C1338.05 101.584 1337.24 102.356 1337.22 103.331Z" fill="#8E84DC"/>
<path d="M1337.49 91.6216C1337.47 92.5967 1338.24 93.4049 1339.22 93.4277C1340.19 93.4505 1341 92.6792 1341.02 91.704C1341.04 90.7289 1340.27 89.9207 1339.3 89.8979C1338.32 89.8751 1337.52 90.6464 1337.49 91.6216Z" fill="#8E84DC"/>
<path d="M1337.77 79.9126C1337.74 80.8878 1338.52 81.696 1339.49 81.7188C1340.46 81.7416 1341.27 80.9703 1341.29 79.9951C1341.32 79.0199 1340.55 78.2117 1339.57 78.1889C1338.6 78.1662 1337.79 78.9375 1337.77 79.9126Z" fill="#8E84DC"/>
<path d="M1338.04 68.2035C1338.02 69.1787 1338.79 69.9869 1339.76 70.0097C1340.74 70.0324 1341.55 69.2611 1341.57 68.286C1341.59 67.3108 1340.82 66.5026 1339.85 66.4798C1338.87 66.457 1338.06 67.2283 1338.04 68.2035Z" fill="#8E84DC"/>
<path d="M1338.31 56.4946C1338.29 57.4697 1339.06 58.2779 1340.04 58.3007C1341.01 58.3235 1341.82 57.5522 1341.84 56.577C1341.87 55.6019 1341.09 54.7937 1340.12 54.7709C1339.15 54.7481 1338.34 55.5194 1338.31 56.4946Z" fill="#8E84DC"/>
<path d="M1338.59 44.7856C1338.57 45.7608 1339.34 46.569 1340.31 46.5918C1341.29 46.6146 1342.09 45.8433 1342.12 44.8681C1342.14 43.8929 1341.37 43.0847 1340.39 43.0619C1339.42 43.0392 1338.61 43.8105 1338.59 44.7856Z" fill="#8E84DC"/>
<path d="M1338.86 33.0698C1338.84 34.0449 1339.61 34.8531 1340.58 34.8759C1341.56 34.8987 1342.37 34.1274 1342.39 33.1522C1342.41 32.177 1341.64 31.3689 1340.67 31.3461C1339.69 31.3233 1338.89 32.0946 1338.86 33.0698Z" fill="#8E84DC"/>
<path d="M1342.67 21.4432C1342.69 20.4681 1341.92 19.6599 1340.95 19.6371C1339.97 19.6143 1339.17 20.3856 1339.14 21.3608C1339.12 22.336 1339.89 23.1442 1340.87 23.1669C1341.84 23.1897 1342.65 22.4184 1342.67 21.4432Z" fill="#8E84DC"/>
<path d="M1344.8 132.8C1344.78 133.775 1345.55 134.583 1346.52 134.606C1347.5 134.629 1348.3 133.857 1348.33 132.882C1348.35 131.907 1347.58 131.099 1346.6 131.076C1345.63 131.053 1344.82 131.825 1344.8 132.8Z" fill="#8E84DC"/>
<path d="M1345.07 121.091C1345.05 122.066 1345.82 122.874 1346.79 122.897C1347.77 122.919 1348.58 122.148 1348.6 121.173C1348.62 120.198 1347.85 119.39 1346.88 119.367C1345.9 119.344 1345.1 120.115 1345.07 121.091Z" fill="#8E84DC"/>
<path d="M1345.35 109.382C1345.32 110.357 1346.09 111.165 1347.07 111.188C1348.04 111.211 1348.85 110.439 1348.87 109.464C1348.9 108.489 1348.13 107.681 1347.15 107.658C1346.18 107.635 1345.37 108.407 1345.35 109.382Z" fill="#8E84DC"/>
<path d="M1345.62 97.6727C1345.6 98.6479 1346.37 99.4561 1347.34 99.4789C1348.32 99.5016 1349.12 98.7303 1349.15 97.7552C1349.17 96.78 1348.4 95.9718 1347.43 95.949C1346.45 95.9262 1345.64 96.6975 1345.62 97.6727Z" fill="#8E84DC"/>
<path d="M1345.89 85.9638C1345.87 86.9389 1346.64 87.7471 1347.62 87.7699C1348.59 87.7927 1349.4 87.0214 1349.42 86.0462C1349.44 85.0711 1348.67 84.2628 1347.7 84.2401C1346.72 84.2173 1345.92 84.9886 1345.89 85.9638Z" fill="#8E84DC"/>
<path d="M1346.17 74.2479C1346.14 75.2231 1346.92 76.0313 1347.89 76.0541C1348.86 76.0769 1349.67 75.3056 1349.7 74.3304C1349.72 73.3552 1348.95 72.547 1347.97 72.5242C1347 72.5014 1346.19 73.2727 1346.17 74.2479Z" fill="#8E84DC"/>
<path d="M1346.44 62.5388C1346.42 63.5139 1347.19 64.3221 1348.16 64.3449C1349.14 64.3677 1349.95 63.5964 1349.97 62.6212C1349.99 61.6461 1349.22 60.8378 1348.25 60.8151C1347.27 60.7923 1346.46 61.5636 1346.44 62.5388Z" fill="#8E84DC"/>
<path d="M1346.72 50.8298C1346.69 51.805 1347.46 52.6132 1348.44 52.636C1349.41 52.6588 1350.22 51.8875 1350.24 50.9123C1350.27 49.9371 1349.49 49.1289 1348.52 49.1061C1347.55 49.0833 1346.74 49.8546 1346.72 50.8298Z" fill="#8E84DC"/>
<path d="M1346.99 39.1209C1346.97 40.0961 1347.74 40.9043 1348.71 40.9271C1349.69 40.9499 1350.49 40.1785 1350.52 39.2034C1350.54 38.2282 1349.77 37.42 1348.79 37.3972C1347.82 37.3744 1347.01 38.1457 1346.99 39.1209Z" fill="#8E84DC"/>
<path d="M1347.26 27.4117C1347.24 28.3869 1348.01 29.1951 1348.99 29.2179C1349.96 29.2407 1350.77 28.4694 1350.79 27.4942C1350.81 26.519 1350.04 25.7108 1349.07 25.688C1348.09 25.6653 1347.29 26.4366 1347.26 27.4117Z" fill="#8E84DC"/>
<path d="M1351.84 138.825C1351.82 139.801 1352.59 140.609 1353.56 140.632C1354.54 140.654 1355.35 139.883 1355.37 138.908C1355.39 137.933 1354.62 137.125 1353.65 137.102C1352.67 137.079 1351.86 137.85 1351.84 138.825Z" fill="#8E84DC"/>
<path d="M1352.11 127.117C1352.09 128.092 1352.86 128.9 1353.84 128.923C1354.81 128.946 1355.62 128.174 1355.64 127.199C1355.66 126.224 1354.89 125.416 1353.92 125.393C1352.94 125.37 1352.14 126.141 1352.11 127.117Z" fill="#8E84DC"/>
<path d="M1352.39 115.4C1352.37 116.376 1353.14 117.184 1354.11 117.207C1355.09 117.229 1355.89 116.458 1355.92 115.483C1355.94 114.508 1355.17 113.7 1354.19 113.677C1353.22 113.654 1352.41 114.425 1352.39 115.4Z" fill="#8E84DC"/>
<path d="M1352.66 103.692C1352.64 104.667 1353.41 105.475 1354.38 105.498C1355.36 105.521 1356.17 104.749 1356.19 103.774C1356.21 102.799 1355.44 101.991 1354.47 101.968C1353.49 101.945 1352.68 102.717 1352.66 103.692Z" fill="#8E84DC"/>
<path d="M1352.94 91.9826C1352.91 92.9578 1353.68 93.766 1354.66 93.7888C1355.63 93.8116 1356.44 93.0403 1356.46 92.0651C1356.49 91.0899 1355.72 90.2817 1354.74 90.2589C1353.77 90.2361 1352.96 91.0074 1352.94 91.9826Z" fill="#8E84DC"/>
<path d="M1353.21 80.2737C1353.19 81.2489 1353.96 82.0571 1354.93 82.0798C1355.91 82.1026 1356.71 81.3313 1356.74 80.3562C1356.76 79.381 1355.99 78.5728 1355.01 78.55C1354.04 78.5272 1353.23 79.2985 1353.21 80.2737Z" fill="#8E84DC"/>
<path d="M1353.48 68.5645C1353.46 69.5397 1354.23 70.3479 1355.21 70.3707C1356.18 70.3935 1356.99 69.6222 1357.01 68.647C1357.03 67.6718 1356.26 66.8636 1355.29 66.8408C1354.31 66.8181 1353.51 67.5894 1353.48 68.5645Z" fill="#8E84DC"/>
<path d="M1353.76 56.8556C1353.73 57.8308 1354.51 58.639 1355.48 58.6618C1356.45 58.6846 1357.26 57.9133 1357.28 56.9381C1357.31 55.9629 1356.54 55.1547 1355.56 55.1319C1354.59 55.1091 1353.78 55.8804 1353.76 56.8556Z" fill="#8E84DC"/>
<path d="M1354.03 45.1467C1354.01 46.1218 1354.78 46.9301 1355.75 46.9529C1356.73 46.9756 1357.54 46.2043 1357.56 45.2291C1357.58 44.254 1356.81 43.4458 1355.84 43.423C1354.86 43.4002 1354.05 44.1715 1354.03 45.1467Z" fill="#8E84DC"/>
<path d="M1354.3 33.4308C1354.28 34.406 1355.05 35.2142 1356.03 35.237C1357 35.2598 1357.81 34.4884 1357.83 33.5133C1357.86 32.5381 1357.08 31.7299 1356.11 31.7071C1355.14 31.6843 1354.33 32.4556 1354.3 33.4308Z" fill="#8E84DC"/>
<path d="M1354.58 21.7217C1354.56 22.6968 1355.33 23.5051 1356.3 23.5278C1357.28 23.5506 1358.08 22.7793 1358.11 21.8041C1358.13 20.829 1357.36 20.0208 1356.38 19.998C1355.41 19.9752 1354.6 20.7465 1354.58 21.7217Z" fill="#8E84DC"/>
<path d="M1360.24 133.161C1360.22 134.136 1360.99 134.944 1361.96 134.967C1362.94 134.99 1363.75 134.218 1363.77 133.243C1363.79 132.268 1363.02 131.46 1362.05 131.437C1361.07 131.414 1360.26 132.186 1360.24 133.161Z" fill="#8E84DC"/>
<path d="M1360.51 121.452C1360.49 122.427 1361.26 123.235 1362.24 123.258C1363.21 123.281 1364.02 122.509 1364.04 121.534C1364.07 120.559 1363.29 119.751 1362.32 119.728C1361.35 119.705 1360.54 120.476 1360.51 121.452Z" fill="#8E84DC"/>
<path d="M1360.79 109.743C1360.77 110.718 1361.54 111.526 1362.51 111.549C1363.49 111.572 1364.29 110.801 1364.32 109.825C1364.34 108.85 1363.57 108.042 1362.59 108.019C1361.62 107.996 1360.81 108.768 1360.79 109.743Z" fill="#8E84DC"/>
<path d="M1361.06 98.0337C1361.04 99.0089 1361.81 99.8171 1362.78 99.8399C1363.76 99.8627 1364.57 99.0914 1364.59 98.1162C1364.61 97.141 1363.84 96.3328 1362.87 96.31C1361.89 96.2873 1361.09 97.0585 1361.06 98.0337Z" fill="#8E84DC"/>
<path d="M1361.34 86.3248C1361.31 87.3 1362.08 88.1082 1363.06 88.131C1364.03 88.1538 1364.84 87.3825 1364.86 86.4073C1364.89 85.4321 1364.12 84.6239 1363.14 84.6011C1362.17 84.5783 1361.36 85.3496 1361.34 86.3248Z" fill="#8E84DC"/>
<path d="M1361.61 74.6089C1361.59 75.5841 1362.36 76.3923 1363.33 76.4151C1364.31 76.4379 1365.11 75.6666 1365.14 74.6914C1365.16 73.7162 1364.39 72.908 1363.42 72.8853C1362.44 72.8625 1361.63 73.6338 1361.61 74.6089Z" fill="#8E84DC"/>
<path d="M1361.88 62.8998C1361.86 63.875 1362.63 64.6832 1363.61 64.706C1364.58 64.7288 1365.39 63.9575 1365.41 62.9823C1365.43 62.0071 1364.66 61.1989 1363.69 61.1761C1362.71 61.1533 1361.91 61.9246 1361.88 62.8998Z" fill="#8E84DC"/>
<path d="M1362.16 51.1909C1362.13 52.166 1362.91 52.9742 1363.88 52.997C1364.85 53.0198 1365.66 52.2485 1365.69 51.2733C1365.71 50.2982 1364.94 49.4899 1363.96 49.4672C1362.99 49.4444 1362.18 50.2157 1362.16 51.1909Z" fill="#8E84DC"/>
<path d="M1362.43 39.4819C1362.41 40.4571 1363.18 41.2653 1364.15 41.2881C1365.13 41.3109 1365.94 40.5396 1365.96 39.5644C1365.98 38.5892 1365.21 37.781 1364.24 37.7582C1363.26 37.7355 1362.45 38.5068 1362.43 39.4819Z" fill="#8E84DC"/>
<path d="M1362.7 27.7728C1362.68 28.748 1363.45 29.5562 1364.43 29.579C1365.4 29.6017 1366.21 28.8304 1366.23 27.8553C1366.26 26.8801 1365.48 26.0719 1364.51 26.0491C1363.54 26.0263 1362.73 26.7976 1362.7 27.7728Z" fill="#8E84DC"/>
<path d="M1367.28 139.187C1367.26 140.162 1368.03 140.97 1369.01 140.993C1369.98 141.015 1370.79 140.244 1370.81 139.269C1370.83 138.294 1370.06 137.486 1369.09 137.463C1368.11 137.44 1367.31 138.211 1367.28 139.187Z" fill="#8E84DC"/>
<path d="M1367.56 127.478C1367.53 128.453 1368.3 129.261 1369.28 129.284C1370.25 129.307 1371.06 128.535 1371.08 127.56C1371.11 126.585 1370.34 125.777 1369.36 125.754C1368.39 125.731 1367.58 126.502 1367.56 127.478Z" fill="#8E84DC"/>
<path d="M1367.83 115.762C1367.81 116.737 1368.58 117.545 1369.55 117.568C1370.53 117.59 1371.34 116.819 1371.36 115.844C1371.38 114.869 1370.61 114.061 1369.64 114.038C1368.66 114.015 1367.85 114.786 1367.83 115.762Z" fill="#8E84DC"/>
<path d="M1368.1 104.053C1368.08 105.028 1368.85 105.836 1369.83 105.859C1370.8 105.882 1371.61 105.11 1371.63 104.135C1371.65 103.16 1370.88 102.352 1369.91 102.329C1368.93 102.306 1368.13 103.078 1368.1 104.053Z" fill="#8E84DC"/>
<path d="M1368.38 92.3436C1368.36 93.3188 1369.13 94.127 1370.1 94.1498C1371.08 94.1726 1371.88 93.4013 1371.91 92.4261C1371.93 91.451 1371.16 90.6427 1370.18 90.62C1369.21 90.5972 1368.4 91.3685 1368.38 92.3436Z" fill="#8E84DC"/>
<path d="M1368.65 80.6347C1368.63 81.6099 1369.4 82.4181 1370.37 82.4409C1371.35 82.4637 1372.16 81.6924 1372.18 80.7172C1372.2 79.742 1371.43 78.9338 1370.46 78.911C1369.48 78.8882 1368.67 79.6595 1368.65 80.6347Z" fill="#8E84DC"/>
<path d="M1368.93 68.9256C1368.9 69.9008 1369.67 70.709 1370.65 70.7318C1371.62 70.7545 1372.43 69.9832 1372.45 69.008C1372.48 68.0329 1371.71 67.2247 1370.73 67.2019C1369.76 67.1791 1368.95 67.9504 1368.93 68.9256Z" fill="#8E84DC"/>
<path d="M1369.2 57.2166C1369.18 58.1918 1369.95 59 1370.92 59.0228C1371.9 59.0456 1372.7 58.2743 1372.73 57.2991C1372.75 56.324 1371.98 55.5157 1371 55.493C1370.03 55.4702 1369.22 56.2415 1369.2 57.2166Z" fill="#8E84DC"/>
<path d="M1369.47 45.5077C1369.45 46.4829 1370.22 47.2911 1371.2 47.3139C1372.17 47.3367 1372.98 46.5654 1373 45.5902C1373.02 44.615 1372.25 43.8068 1371.28 43.784C1370.3 43.7612 1369.5 44.5325 1369.47 45.5077Z" fill="#8E84DC"/>
<path d="M1369.75 33.7918C1369.72 34.767 1370.5 35.5752 1371.47 35.598C1372.44 35.6208 1373.25 34.8495 1373.27 33.8743C1373.3 32.8991 1372.53 32.0909 1371.55 32.0682C1370.58 32.0454 1369.77 32.8167 1369.75 33.7918Z" fill="#8E84DC"/>
<path d="M1372.27 23.8049C1371.6 23.542 1370.93 23.2583 1370.26 22.9953C1370.56 23.5178 1371.12 23.8743 1371.75 23.889C1371.93 23.8932 1372.11 23.8768 1372.27 23.8118L1372.27 23.8049Z" fill="#8E84DC"/>
<path d="M1375.68 133.522C1375.66 134.497 1376.43 135.305 1377.41 135.328C1378.38 135.351 1379.19 134.579 1379.21 133.604C1379.23 132.629 1378.46 131.821 1377.49 131.798C1376.51 131.775 1375.71 132.547 1375.68 133.522Z" fill="#8E84DC"/>
<path d="M1375.96 121.813C1375.93 122.788 1376.71 123.596 1377.68 123.619C1378.65 123.642 1379.46 122.87 1379.48 121.895C1379.51 120.92 1378.74 120.112 1377.76 120.089C1376.79 120.066 1375.98 120.837 1375.96 121.813Z" fill="#8E84DC"/>
<path d="M1376.23 110.104C1376.21 111.079 1376.98 111.887 1377.95 111.91C1378.93 111.933 1379.74 111.162 1379.76 110.186C1379.78 109.211 1379.01 108.403 1378.04 108.38C1377.06 108.357 1376.25 109.129 1376.23 110.104Z" fill="#8E84DC"/>
<path d="M1376.5 98.3948C1376.48 99.3699 1377.25 100.178 1378.23 100.201C1379.2 100.224 1380.01 99.4524 1380.03 98.4773C1380.06 97.5021 1379.28 96.6939 1378.31 96.6711C1377.34 96.6483 1376.53 97.4196 1376.5 98.3948Z" fill="#8E84DC"/>
<path d="M1376.78 86.6859C1376.76 87.661 1377.53 88.4692 1378.5 88.492C1379.48 88.5148 1380.28 87.7435 1380.31 86.7683C1380.33 85.7932 1379.56 84.985 1378.58 84.9622C1377.61 84.9394 1376.8 85.7107 1376.78 86.6859Z" fill="#8E84DC"/>
<path d="M1377.05 74.97C1377.03 75.9452 1377.8 76.7534 1378.77 76.7762C1379.75 76.799 1380.56 76.0276 1380.58 75.0525C1380.6 74.0773 1379.83 73.2691 1378.86 73.2463C1377.88 73.2235 1377.08 73.9948 1377.05 74.97Z" fill="#8E84DC"/>
<path d="M1377.33 63.2608C1377.3 64.236 1378.07 65.0442 1379.05 65.067C1380.02 65.0898 1380.83 64.3185 1380.85 63.3433C1380.88 62.3681 1380.11 61.5599 1379.13 61.5371C1378.16 61.5144 1377.35 62.2857 1377.33 63.2608Z" fill="#8E84DC"/>
<path d="M1377.6 51.5519C1377.58 52.5271 1378.35 53.3353 1379.32 53.3581C1380.3 53.3809 1381.1 52.6096 1381.13 51.6344C1381.15 50.6592 1380.38 49.851 1379.4 49.8282C1378.43 49.8054 1377.62 50.5767 1377.6 51.5519Z" fill="#8E84DC"/>
<path d="M1377.87 39.843C1377.85 40.8182 1378.62 41.6264 1379.6 41.6492C1380.57 41.6719 1381.38 40.9006 1381.4 39.9254C1381.42 38.9503 1380.65 38.1421 1379.68 38.1193C1378.7 38.0965 1377.9 38.8678 1377.87 39.843Z" fill="#8E84DC"/>
<path d="M1379.87 29.9333C1380.73 29.9534 1381.43 29.3858 1381.61 28.6203C1380.64 28.0341 1379.65 27.4477 1378.66 26.9297C1378.35 27.2387 1378.17 27.6603 1378.15 28.1341C1378.13 29.1024 1378.9 29.9107 1379.87 29.9333Z" fill="#8E84DC"/>
<path d="M1382.73 139.548C1382.7 140.523 1383.47 141.331 1384.45 141.354C1385.42 141.377 1386.23 140.605 1386.25 139.63C1386.28 138.655 1385.51 137.847 1384.53 137.824C1383.56 137.801 1382.75 138.572 1382.73 139.548Z" fill="#8E84DC"/>
<path d="M1383 127.839C1382.98 128.814 1383.75 129.622 1384.72 129.645C1385.7 129.668 1386.5 128.896 1386.53 127.921C1386.55 126.946 1385.78 126.138 1384.8 126.115C1383.83 126.092 1383.02 126.863 1383 127.839Z" fill="#8E84DC"/>
<path d="M1383.27 116.123C1383.25 117.098 1384.02 117.906 1385 117.929C1385.97 117.952 1386.78 117.18 1386.8 116.205C1386.82 115.23 1386.05 114.422 1385.08 114.399C1384.1 114.376 1383.3 115.147 1383.27 116.123Z" fill="#8E84DC"/>
<path d="M1383.55 104.414C1383.52 105.389 1384.29 106.197 1385.27 106.22C1386.24 106.243 1387.05 105.471 1387.07 104.496C1387.1 103.521 1386.33 102.713 1385.35 102.69C1384.38 102.667 1383.57 103.439 1383.55 104.414Z" fill="#8E84DC"/>
<path d="M1383.82 92.7047C1383.8 93.6799 1384.57 94.4881 1385.54 94.5109C1386.52 94.5337 1387.33 93.7624 1387.35 92.7872C1387.37 91.812 1386.6 91.0038 1385.63 90.981C1384.65 90.9582 1383.84 91.7295 1383.82 92.7047Z" fill="#8E84DC"/>
<path d="M1384.09 80.9958C1384.07 81.9709 1384.84 82.7792 1385.82 82.8019C1386.79 82.8247 1387.6 82.0534 1387.62 81.0782C1387.64 80.1031 1386.87 79.2949 1385.9 79.2721C1384.92 79.2493 1384.12 80.0206 1384.09 80.9958Z" fill="#8E84DC"/>
<path d="M1384.37 69.2866C1384.35 70.2618 1385.12 71.07 1386.09 71.0928C1387.07 71.1156 1387.87 70.3443 1387.9 69.3691C1387.92 68.3939 1387.15 67.5857 1386.17 67.5629C1385.2 67.5401 1384.39 68.3114 1384.37 69.2866Z" fill="#8E84DC"/>
<path d="M1384.64 57.5777C1384.62 58.5529 1385.39 59.3611 1386.36 59.3839C1387.34 59.4067 1388.15 58.6354 1388.17 57.6602C1388.19 56.685 1387.42 55.8768 1386.45 55.854C1385.47 55.8312 1384.66 56.6025 1384.64 57.5777Z" fill="#8E84DC"/>
<path d="M1384.92 45.8688C1384.89 46.8439 1385.66 47.6522 1386.64 47.6749C1387.61 47.6977 1388.42 46.9264 1388.44 45.9512C1388.47 44.9761 1387.7 44.1679 1386.72 44.1451C1385.75 44.1223 1384.94 44.8936 1384.92 45.8688Z" fill="#8E84DC"/>
<path d="M1385.2 34.153C1385.17 35.1213 1385.94 35.9501 1386.91 35.9727C1387.88 35.9954 1388.71 35.2039 1388.73 34.2356C1388.74 33.9197 1388.66 33.6223 1388.52 33.3719C1388.13 33.0671 1387.75 32.7697 1387.35 32.4855C1387.24 32.4624 1387.1 32.4317 1386.99 32.4291C1386.03 32.4065 1385.22 33.1778 1385.2 34.1461L1385.2 34.153Z" fill="#8E84DC"/>
<path d="M1391.13 133.883C1391.1 134.858 1391.87 135.666 1392.85 135.689C1393.82 135.712 1394.63 134.94 1394.65 133.965C1394.68 132.99 1393.91 132.182 1392.93 132.159C1391.96 132.136 1391.15 132.908 1391.13 133.883Z" fill="#8E84DC"/>
<path d="M1391.4 122.174C1391.38 123.149 1392.15 123.957 1393.12 123.98C1394.1 124.003 1394.9 123.231 1394.93 122.256C1394.95 121.281 1394.18 120.473 1393.2 120.45C1392.23 120.427 1391.42 121.199 1391.4 122.174Z" fill="#8E84DC"/>
<path d="M1391.67 110.465C1391.65 111.44 1392.42 112.248 1393.4 112.271C1394.37 112.294 1395.18 111.523 1395.2 110.547C1395.22 109.572 1394.45 108.764 1393.48 108.741C1392.5 108.718 1391.7 109.49 1391.67 110.465Z" fill="#8E84DC"/>
<path d="M1391.95 98.7558C1391.92 99.731 1392.7 100.539 1393.67 100.562C1394.64 100.585 1395.45 99.8135 1395.47 98.8383C1395.5 97.8631 1394.73 97.0549 1393.75 97.0321C1392.78 97.0094 1391.97 97.7806 1391.95 98.7558Z" fill="#8E84DC"/>
<path d="M1392.22 87.0469C1392.2 88.0221 1392.97 88.8303 1393.94 88.8531C1394.92 88.8759 1395.73 88.1046 1395.75 87.1294C1395.77 86.1542 1395 85.346 1394.03 85.3232C1393.05 85.3004 1392.24 86.0717 1392.22 87.0469Z" fill="#8E84DC"/>
<path d="M1392.49 75.331C1392.47 76.3062 1393.24 77.1144 1394.22 77.1372C1395.19 77.16 1396 76.3887 1396.02 75.4135C1396.05 74.4383 1395.27 73.6301 1394.3 73.6073C1393.33 73.5846 1392.52 74.3559 1392.49 75.331Z" fill="#8E84DC"/>
<path d="M1392.77 63.6219C1392.75 64.5971 1393.52 65.4053 1394.49 65.4281C1395.47 65.4509 1396.27 64.6795 1396.3 63.7044C1396.32 62.7292 1395.55 61.921 1394.57 61.8982C1393.6 61.8754 1392.79 62.6467 1392.77 63.6219Z" fill="#8E84DC"/>
<path d="M1393.04 51.9129C1393.02 52.8881 1393.79 53.6963 1394.76 53.7191C1395.74 53.7419 1396.55 52.9706 1396.57 51.9954C1396.59 51.0203 1395.82 50.212 1394.85 50.1893C1393.87 50.1665 1393.07 50.9378 1393.04 51.9129Z" fill="#8E84DC"/>
<path d="M1393.32 40.204C1393.29 41.1723 1394.06 42.0011 1395.05 42.0242C1395.84 42.0426 1396.53 41.5158 1396.75 40.7996C1396.03 40.0406 1395.3 39.3228 1394.55 38.5837C1393.84 38.794 1393.33 39.4348 1393.32 40.1971L1393.32 40.204Z" fill="#8E84DC"/>
<path d="M1398.17 139.902C1398.16 140.259 1398.26 140.605 1398.44 140.877C1399.18 140.035 1399.92 139.201 1400.62 138.317C1400.44 138.244 1400.21 138.197 1399.99 138.192C1399 138.169 1398.19 138.94 1398.17 139.909L1398.17 139.902Z" fill="#8E84DC"/>
<path d="M1398.44 128.2C1398.42 129.175 1399.19 129.983 1400.16 130.006C1401.14 130.029 1401.95 129.257 1401.97 128.282C1401.99 127.307 1401.22 126.499 1400.25 126.476C1399.27 126.453 1398.46 127.225 1398.44 128.2Z" fill="#8E84DC"/>
<path d="M1398.72 116.484C1398.69 117.459 1399.46 118.267 1400.44 118.29C1401.41 118.313 1402.22 117.541 1402.24 116.566C1402.27 115.591 1401.5 114.783 1400.52 114.76C1399.55 114.737 1398.74 115.508 1398.72 116.484Z" fill="#8E84DC"/>
<path d="M1398.99 104.775C1398.97 105.75 1399.74 106.558 1400.71 106.581C1401.69 106.604 1402.49 105.833 1402.52 104.857C1402.54 103.882 1401.77 103.074 1400.79 103.051C1399.82 103.028 1399.01 103.8 1398.99 104.775Z" fill="#8E84DC"/>
<path d="M1399.26 93.0657C1399.24 94.0409 1400.01 94.8491 1400.99 94.8719C1401.96 94.8947 1402.77 94.1234 1402.79 93.1482C1402.81 92.173 1402.04 91.3648 1401.07 91.3421C1400.09 91.3193 1399.29 92.0906 1399.26 93.0657Z" fill="#8E84DC"/>
<path d="M1399.54 81.3568C1399.51 82.332 1400.28 83.1402 1401.26 83.163C1402.23 83.1858 1403.04 82.4145 1403.06 81.4393C1403.09 80.4641 1402.32 79.6559 1401.34 79.6331C1400.37 79.6103 1399.56 80.3816 1399.54 81.3568Z" fill="#8E84DC"/>
<path d="M1399.81 69.6477C1399.79 70.6228 1400.56 71.4311 1401.53 71.4538C1402.51 71.4766 1403.32 70.7053 1403.34 69.7301C1403.36 68.755 1402.59 67.9468 1401.62 67.924C1400.64 67.9012 1399.83 68.6725 1399.81 69.6477Z" fill="#8E84DC"/>
<path d="M1400.08 57.9387C1400.06 58.9139 1400.83 59.7221 1401.81 59.7449C1402.78 59.7677 1403.59 58.9964 1403.61 58.0212C1403.63 57.0461 1402.86 56.2378 1401.89 56.2151C1400.91 56.1923 1400.11 56.9636 1400.08 57.9387Z" fill="#8E84DC"/>
<path d="M1402.09 48.0433C1402.32 48.0486 1402.55 48.0058 1402.75 47.9212C1402.07 47.0051 1401.37 46.1299 1400.68 45.2616C1400.49 45.5527 1400.37 45.8659 1400.36 46.223C1400.34 47.1913 1401.11 48.0201 1402.09 48.0433Z" fill="#8E84DC"/>
<path d="M1406.84 122.528C1406.81 123.517 1407.58 124.325 1408.57 124.348C1409.04 124.359 1409.5 124.163 1409.82 123.862C1410.01 123.481 1410.17 123.107 1410.34 122.727L1410.36 122.706L1410.36 122.617C1410.39 121.649 1409.61 120.841 1408.65 120.818C1407.68 120.795 1406.85 121.566 1406.83 122.534L1406.84 122.528Z" fill="#8E84DC"/>
<path d="M1407.12 110.826C1407.09 111.801 1407.86 112.609 1408.84 112.632C1409.81 112.655 1410.62 111.884 1410.64 110.909C1410.67 109.933 1409.9 109.125 1408.92 109.102C1407.95 109.08 1407.14 109.851 1407.12 110.826Z" fill="#8E84DC"/>
<path d="M1407.39 99.1169C1407.37 100.092 1408.14 100.9 1409.11 100.923C1410.09 100.946 1410.89 100.175 1410.92 99.1994C1410.94 98.2242 1410.17 97.416 1409.19 97.3932C1408.22 97.3704 1407.41 98.1417 1407.39 99.1169Z" fill="#8E84DC"/>
<path d="M1407.66 87.4079C1407.64 88.3831 1408.41 89.1913 1409.39 89.2141C1410.36 89.2369 1411.17 88.4656 1411.19 87.4904C1411.21 86.5153 1410.44 85.707 1409.47 85.6842C1408.49 85.6615 1407.69 86.4328 1407.66 87.4079Z" fill="#8E84DC"/>
<path d="M1407.94 75.6921C1407.91 76.6673 1408.69 77.4755 1409.66 77.4983C1410.63 77.521 1411.44 76.7497 1411.46 75.7746C1411.49 74.7994 1410.72 73.9912 1409.74 73.9684C1408.77 73.9456 1407.96 74.7169 1407.94 75.6921Z" fill="#8E84DC"/>
<path d="M1408.2 63.9829C1408.18 64.9512 1408.95 65.78 1409.94 65.8032C1410.93 65.8263 1411.72 65.0339 1411.74 64.0656L1411.74 63.9763L1411.72 63.9552C1411.59 63.5949 1411.44 63.2272 1411.27 62.8385L1411.25 62.8174C1410.94 62.4941 1410.5 62.2845 1410.03 62.2735C1409.04 62.2503 1408.23 63.0217 1408.21 63.99L1408.2 63.9829Z" fill="#8E84DC"/>
<path d="M1414.42 105.129C1414.41 105.918 1414.91 106.583 1415.6 106.826C1415.83 105.704 1416.04 104.562 1416.22 103.419C1415.25 103.417 1414.45 104.167 1414.42 105.136L1414.42 105.129Z" fill="#8E84DC"/>
<path d="M1414.7 93.4198C1414.68 94.4087 1415.47 95.2174 1416.43 95.2401C1416.66 95.2454 1416.89 95.2026 1417.07 95.1449C1417.1 94.5823 1417.12 94.0398 1417.13 93.4766C1417.14 92.9135 1417.15 92.371 1417.15 91.8348C1416.97 91.762 1416.74 91.7155 1416.52 91.7102C1415.55 91.6876 1414.72 92.4584 1414.7 93.4267L1414.7 93.4198Z" fill="#8E84DC"/>
<path d="M1414.97 81.7107C1414.95 82.6996 1415.72 83.4872 1416.69 83.5304C1416.58 82.3529 1416.43 81.2293 1416.23 80.0978C1415.52 80.308 1414.99 80.9484 1414.97 81.7107Z" fill="#8E84DC"/>
<path d="M1360.15 -100.094L1360.1 -98.2957C1299.29 -99.7175 1248.66 -51.4141 1247.24 9.38186C1245.82 70.1778 1294.14 120.795 1354.95 122.216C1415.76 123.638 1466.39 75.3348 1467.81 14.5388L1469.61 14.5809C1468.17 76.369 1416.71 125.459 1354.91 124.014C1293.1 122.569 1244 71.1279 1245.44 9.33981C1246.89 -52.4483 1298.34 -101.539 1360.15 -100.094Z" fill="#8E84DC"/>
<path fill-rule="evenodd" clip-rule="evenodd" d="M1362.92 -102.745L1362.76 -95.518L1360.04 -95.5814C1300.73 -96.9682 1251.34 -49.8509 1249.96 9.44531C1248.57 68.7415 1295.7 118.115 1355.01 119.502C1414.33 120.889 1463.71 73.7716 1465.1 14.4754L1465.16 11.7611L1472.39 11.93L1472.32 14.6443C1470.84 77.9322 1418.15 128.209 1354.84 126.729C1291.54 125.249 1241.25 72.5642 1242.73 9.27634C1244.21 -54.0115 1296.91 -104.288 1360.21 -102.808L1362.92 -102.745ZM1360.14 -100.094C1359.24 -100.115 1358.33 -100.125 1357.43 -100.125C1296.84 -100.095 1246.87 -51.5413 1245.44 9.33981C1244 71.1279 1293.1 122.569 1354.91 124.014C1415.8 125.438 1466.65 77.7998 1469.51 17.2944C1469.56 16.3941 1469.59 15.491 1469.61 14.5851L1469.61 14.5809L1467.81 14.5388C1466.39 75.3348 1415.76 123.638 1354.95 122.216C1294.14 120.795 1245.82 70.1778 1247.24 9.38186C1248.66 -51.4132 1299.29 -99.716 1360.1 -98.2958L1360.1 -98.2957L1360.15 -100.094L1360.14 -100.094Z" fill="#8E84DC"/>
<path d="M1399.66 -19.3644L1413.5 -32.5693L1411.2 -34.9784L1397.36 -21.7735L1399.66 -19.3644Z" fill="#8E84DC"/>
<path d="M1431.38 -49.6314L1445.23 -62.8364L1442.93 -65.2455L1429.09 -52.0405L1431.38 -49.6314Z" fill="#8E84DC"/>
<path d="M1411.56 -50.0875L1413.96 -52.3865L1400.76 -66.2239L1398.35 -63.9249L1411.56 -50.0875Z" fill="#8E84DC"/>
<path d="M1441.83 -18.374L1444.24 -20.673L1431.03 -34.5104L1428.62 -32.2113L1441.83 -18.374Z" fill="#8E84DC"/>
<path d="M1152.89 154.427C1152.98 154.706 1153.08 154.973 1153.17 155.24C1153.2 155.144 1153.21 155.041 1153.2 154.941C1153.18 154.72 1153.06 154.537 1152.89 154.427Z" fill="#8E84DC"/>
<path d="M1152.73 150.179C1152.69 149.785 1152.34 149.496 1151.94 149.536C1151.86 149.543 1151.78 149.56 1151.72 149.594C1151.79 150.058 1151.87 150.512 1151.96 150.966L1151.96 150.974C1152 150.979 1152.04 150.975 1152.07 150.972C1152.48 150.932 1152.77 150.579 1152.73 150.177L1152.73 150.179Z" fill="#8E84DC"/>
<path d="M1152.26 145.418C1152.22 145.024 1151.87 144.735 1151.47 144.775C1151.43 144.778 1151.39 144.782 1151.36 144.794L1151.36 144.802C1151.36 145.265 1151.36 145.727 1151.38 146.196C1151.45 146.217 1151.53 146.217 1151.61 146.21C1152.01 146.17 1152.31 145.817 1152.27 145.415L1152.26 145.418Z" fill="#8E84DC"/>
<path d="M1151.7 140.37C1151.66 140.65 1151.62 140.942 1151.59 141.232C1151.73 141.088 1151.81 140.877 1151.79 140.656C1151.78 140.548 1151.74 140.458 1151.7 140.37Z" fill="#8E84DC"/>
<path d="M1156.1 161.154C1156.33 161.493 1156.55 161.831 1156.79 162.157C1156.84 162.051 1156.86 161.919 1156.85 161.791C1156.81 161.417 1156.49 161.133 1156.11 161.153L1156.1 161.154Z" fill="#8E84DC"/>
<path d="M1154.93 157.175C1154.97 157.572 1155.33 157.861 1155.72 157.822C1156.12 157.782 1156.41 157.429 1156.38 157.032C1156.34 156.636 1155.98 156.347 1155.58 156.386C1155.18 156.426 1154.89 156.779 1154.93 157.175Z" fill="#8E84DC"/>
<path d="M1154.46 152.414C1154.5 152.81 1154.85 153.1 1155.25 153.06C1155.65 153.021 1155.94 152.668 1155.9 152.271C1155.87 151.875 1155.51 151.585 1155.11 151.625C1154.71 151.664 1154.42 152.017 1154.46 152.414Z" fill="#8E84DC"/>
<path d="M1153.99 147.652C1154.03 148.049 1154.38 148.338 1154.78 148.299C1155.18 148.259 1155.47 147.906 1155.43 147.51C1155.39 147.113 1155.04 146.824 1154.64 146.863C1154.24 146.903 1153.95 147.256 1153.99 147.652Z" fill="#8E84DC"/>
<path d="M1153.52 142.891C1153.56 143.288 1153.91 143.577 1154.31 143.537C1154.71 143.498 1155 143.145 1154.96 142.748C1154.92 142.352 1154.57 142.063 1154.17 142.102C1153.77 142.141 1153.48 142.495 1153.52 142.891Z" fill="#8E84DC"/>
<path d="M1153.05 138.13C1153.09 138.526 1153.44 138.815 1153.84 138.776C1154.24 138.737 1154.53 138.383 1154.49 137.987C1154.45 137.59 1154.1 137.301 1153.7 137.341C1153.3 137.38 1153.01 137.733 1153.05 138.13Z" fill="#8E84DC"/>
<path d="M1154.02 133.223C1154.01 133.094 1153.96 132.969 1153.89 132.875C1153.73 133.252 1153.57 133.628 1153.42 134.004C1153.8 133.947 1154.06 133.6 1154.02 133.223Z" fill="#8E84DC"/>
<path d="M1159.02 163.984C1159.06 164.381 1159.41 164.67 1159.81 164.631C1160.21 164.591 1160.5 164.238 1160.46 163.842C1160.42 163.445 1160.07 163.156 1159.67 163.195C1159.27 163.235 1158.98 163.588 1159.02 163.984Z" fill="#8E84DC"/>
<path d="M1158.55 159.223C1158.59 159.62 1158.94 159.909 1159.34 159.869C1159.74 159.83 1160.03 159.477 1159.99 159.08C1159.95 158.684 1159.6 158.395 1159.2 158.434C1158.8 158.473 1158.51 158.826 1158.55 159.223Z" fill="#8E84DC"/>
<path d="M1158.08 154.462C1158.12 154.858 1158.47 155.148 1158.87 155.108C1159.27 155.069 1159.56 154.716 1159.52 154.319C1159.48 153.922 1159.13 153.633 1158.73 153.673C1158.33 153.712 1158.04 154.065 1158.08 154.462Z" fill="#8E84DC"/>
<path d="M1157.61 149.7C1157.65 150.097 1158 150.386 1158.4 150.347C1158.8 150.307 1159.09 149.954 1159.05 149.558C1159.01 149.161 1158.66 148.872 1158.26 148.911C1157.86 148.951 1157.57 149.304 1157.61 149.7Z" fill="#8E84DC"/>
<path d="M1157.14 144.939C1157.18 145.335 1157.53 145.625 1157.93 145.585C1158.33 145.546 1158.62 145.193 1158.58 144.796C1158.54 144.4 1158.19 144.11 1157.79 144.15C1157.39 144.189 1157.1 144.542 1157.14 144.939Z" fill="#8E84DC"/>
<path d="M1156.67 140.175C1156.7 140.571 1157.06 140.86 1157.46 140.821C1157.86 140.782 1158.15 140.429 1158.11 140.032C1158.07 139.635 1157.72 139.346 1157.32 139.386C1156.92 139.425 1156.63 139.778 1156.67 140.175Z" fill="#8E84DC"/>
<path d="M1156.2 135.413C1156.23 135.81 1156.59 136.099 1156.99 136.06C1157.39 136.02 1157.68 135.667 1157.64 135.271C1157.6 134.874 1157.24 134.585 1156.85 134.624C1156.45 134.664 1156.16 135.017 1156.2 135.413Z" fill="#8E84DC"/>
<path d="M1155.72 130.652C1155.76 131.048 1156.12 131.338 1156.52 131.298C1156.92 131.259 1157.21 130.906 1157.17 130.509C1157.13 130.113 1156.77 129.823 1156.38 129.863C1155.98 129.902 1155.69 130.255 1155.72 130.652Z" fill="#8E84DC"/>
<path d="M1162.19 166.076C1162.23 166.473 1162.59 166.762 1162.99 166.722C1163.38 166.683 1163.68 166.33 1163.64 165.933C1163.6 165.537 1163.24 165.248 1162.84 165.287C1162.44 165.327 1162.15 165.68 1162.19 166.076Z" fill="#8E84DC"/>
<path d="M1161.72 161.315C1161.76 161.711 1162.12 162.001 1162.51 161.961C1162.91 161.922 1163.2 161.569 1163.17 161.172C1163.13 160.776 1162.77 160.486 1162.37 160.526C1161.97 160.565 1161.68 160.918 1161.72 161.315Z" fill="#8E84DC"/>
<path d="M1161.25 156.551C1161.29 156.947 1161.65 157.236 1162.04 157.197C1162.44 157.157 1162.73 156.804 1162.69 156.408C1162.66 156.011 1162.3 155.722 1161.9 155.761C1161.5 155.801 1161.21 156.154 1161.25 156.551Z" fill="#8E84DC"/>
<path d="M1160.78 151.789C1160.82 152.186 1161.17 152.475 1161.57 152.436C1161.97 152.396 1162.26 152.043 1162.22 151.647C1162.18 151.25 1161.83 150.961 1161.43 151C1161.03 151.04 1160.74 151.393 1160.78 151.789Z" fill="#8E84DC"/>
<path d="M1160.31 147.028C1160.35 147.424 1160.7 147.714 1161.1 147.674C1161.5 147.635 1161.79 147.282 1161.75 146.885C1161.71 146.489 1161.36 146.199 1160.96 146.239C1160.56 146.278 1160.27 146.631 1160.31 147.028Z" fill="#8E84DC"/>
<path d="M1159.84 142.266C1159.88 142.663 1160.23 142.952 1160.63 142.913C1161.03 142.873 1161.32 142.52 1161.28 142.124C1161.24 141.727 1160.89 141.438 1160.49 141.477C1160.09 141.517 1159.8 141.87 1159.84 142.266Z" fill="#8E84DC"/>
<path d="M1159.37 137.505C1159.41 137.902 1159.76 138.191 1160.16 138.151C1160.56 138.112 1160.85 137.759 1160.81 137.362C1160.77 136.966 1160.42 136.676 1160.02 136.716C1159.62 136.755 1159.33 137.108 1159.37 137.505Z" fill="#8E84DC"/>
<path d="M1158.9 132.744C1158.94 133.14 1159.29 133.429 1159.69 133.39C1160.09 133.351 1160.38 132.997 1160.34 132.601C1160.3 132.204 1159.95 131.915 1159.55 131.955C1159.15 131.994 1158.86 132.347 1158.9 132.744Z" fill="#8E84DC"/>
<path d="M1158.43 127.982C1158.47 128.379 1158.82 128.668 1159.22 128.629C1159.62 128.589 1159.91 128.236 1159.87 127.84C1159.83 127.443 1159.48 127.154 1159.08 127.193C1158.68 127.233 1158.39 127.586 1158.43 127.982Z" fill="#8E84DC"/>
<path d="M1165.34 163.36C1165.38 163.756 1165.73 164.046 1166.13 164.006C1166.53 163.967 1166.82 163.614 1166.78 163.217C1166.74 162.821 1166.39 162.531 1165.99 162.571C1165.59 162.61 1165.3 162.963 1165.34 163.36Z" fill="#8E84DC"/>
<path d="M1164.87 158.598C1164.91 158.995 1165.26 159.284 1165.66 159.245C1166.06 159.205 1166.35 158.852 1166.31 158.456C1166.27 158.059 1165.92 157.77 1165.52 157.809C1165.12 157.849 1164.83 158.202 1164.87 158.598Z" fill="#8E84DC"/>
<path d="M1164.4 153.837C1164.44 154.234 1164.79 154.523 1165.19 154.483C1165.59 154.444 1165.88 154.091 1165.84 153.694C1165.8 153.298 1165.45 153.009 1165.05 153.048C1164.65 153.087 1164.36 153.44 1164.4 153.837Z" fill="#8E84DC"/>
<path d="M1163.93 149.076C1163.97 149.472 1164.32 149.761 1164.72 149.722C1165.12 149.683 1165.41 149.329 1165.37 148.933C1165.33 148.536 1164.98 148.247 1164.58 148.287C1164.18 148.326 1163.89 148.679 1163.93 149.076Z" fill="#8E84DC"/>
<path d="M1163.46 144.314C1163.5 144.711 1163.85 145 1164.25 144.961C1164.65 144.921 1164.94 144.568 1164.9 144.172C1164.86 143.775 1164.51 143.486 1164.11 143.525C1163.71 143.565 1163.42 143.918 1163.46 144.314Z" fill="#8E84DC"/>
<path d="M1162.99 139.55C1163.02 139.947 1163.38 140.236 1163.78 140.196C1164.18 140.157 1164.47 139.804 1164.43 139.407C1164.39 139.011 1164.04 138.722 1163.64 138.761C1163.24 138.8 1162.95 139.154 1162.99 139.55Z" fill="#8E84DC"/>
<path d="M1162.51 134.789C1162.55 135.185 1162.91 135.474 1163.31 135.435C1163.71 135.396 1164 135.042 1163.96 134.646C1163.92 134.249 1163.56 133.96 1163.17 134C1162.77 134.039 1162.48 134.392 1162.51 134.789Z" fill="#8E84DC"/>
<path d="M1162.04 130.027C1162.08 130.424 1162.44 130.713 1162.84 130.674C1163.24 130.634 1163.53 130.281 1163.49 129.885C1163.45 129.488 1163.09 129.199 1162.7 129.238C1162.3 129.278 1162 129.631 1162.04 130.027Z" fill="#8E84DC"/>
<path d="M1161.57 125.266C1161.61 125.662 1161.97 125.952 1162.37 125.912C1162.77 125.873 1163.06 125.52 1163.02 125.123C1162.98 124.727 1162.62 124.437 1162.22 124.477C1161.83 124.516 1161.53 124.869 1161.57 125.266Z" fill="#8E84DC"/>
<path d="M1168.52 165.451C1168.55 165.848 1168.91 166.137 1169.31 166.098C1169.71 166.058 1170 165.705 1169.96 165.309C1169.92 164.912 1169.56 164.623 1169.17 164.662C1168.77 164.702 1168.48 165.055 1168.52 165.451Z" fill="#8E84DC"/>
<path d="M1168.04 160.69C1168.08 161.086 1168.44 161.376 1168.84 161.336C1169.24 161.297 1169.53 160.944 1169.49 160.547C1169.45 160.151 1169.09 159.861 1168.7 159.901C1168.3 159.94 1168.01 160.293 1168.04 160.69Z" fill="#8E84DC"/>
<path d="M1167.57 155.926C1167.61 156.322 1167.97 156.611 1168.37 156.572C1168.77 156.532 1169.06 156.179 1169.02 155.783C1168.98 155.386 1168.62 155.097 1168.22 155.136C1167.83 155.176 1167.53 155.529 1167.57 155.926Z" fill="#8E84DC"/>
<path d="M1167.1 151.164C1167.14 151.561 1167.5 151.85 1167.9 151.811C1168.29 151.771 1168.59 151.418 1168.55 151.022C1168.51 150.625 1168.15 150.336 1167.75 150.375C1167.36 150.415 1167.06 150.768 1167.1 151.164Z" fill="#8E84DC"/>
<path d="M1166.63 146.403C1166.67 146.799 1167.03 147.089 1167.43 147.049C1167.82 147.01 1168.12 146.657 1168.08 146.26C1168.04 145.864 1167.68 145.574 1167.28 145.614C1166.88 145.653 1166.59 146.006 1166.63 146.403Z" fill="#8E84DC"/>
<path d="M1166.16 141.641C1166.2 142.038 1166.56 142.327 1166.95 142.288C1167.35 142.248 1167.64 141.895 1167.61 141.499C1167.57 141.102 1167.21 140.813 1166.81 140.852C1166.41 140.892 1166.12 141.245 1166.16 141.641Z" fill="#8E84DC"/>
<path d="M1165.69 136.88C1165.73 137.277 1166.08 137.566 1166.48 137.526C1166.88 137.487 1167.17 137.134 1167.13 136.737C1167.1 136.341 1166.74 136.052 1166.34 136.091C1165.94 136.13 1165.65 136.483 1165.69 136.88Z" fill="#8E84DC"/>
<path d="M1165.22 132.119C1165.26 132.515 1165.61 132.804 1166.01 132.765C1166.41 132.726 1166.7 132.372 1166.66 131.976C1166.62 131.579 1166.27 131.29 1165.87 131.33C1165.47 131.369 1165.18 131.722 1165.22 132.119Z" fill="#8E84DC"/>
<path d="M1164.75 127.357C1164.79 127.754 1165.14 128.043 1165.54 128.004C1165.94 127.964 1166.23 127.611 1166.19 127.215C1166.15 126.818 1165.8 126.529 1165.4 126.568C1165 126.608 1164.71 126.961 1164.75 127.357Z" fill="#8E84DC"/>
<path d="M1164.28 122.593C1164.32 122.99 1164.67 123.279 1165.07 123.239C1165.47 123.2 1165.76 122.847 1165.72 122.45C1165.68 122.054 1165.33 121.765 1164.93 121.804C1164.53 121.843 1164.24 122.197 1164.28 122.593Z" fill="#8E84DC"/>
<path d="M1171.66 162.735C1171.7 163.132 1172.05 163.421 1172.45 163.381C1172.85 163.342 1173.14 162.989 1173.1 162.592C1173.06 162.196 1172.71 161.907 1172.31 161.946C1171.91 161.985 1171.62 162.339 1171.66 162.735Z" fill="#8E84DC"/>
<path d="M1171.19 157.974C1171.23 158.37 1171.58 158.659 1171.98 158.62C1172.38 158.581 1172.67 158.227 1172.63 157.831C1172.59 157.434 1172.24 157.145 1171.84 157.185C1171.44 157.224 1171.15 157.577 1171.19 157.974Z" fill="#8E84DC"/>
<path d="M1170.72 153.212C1170.76 153.609 1171.11 153.898 1171.51 153.859C1171.91 153.819 1172.2 153.466 1172.16 153.07C1172.12 152.673 1171.77 152.384 1171.37 152.423C1170.97 152.463 1170.68 152.816 1170.72 153.212Z" fill="#8E84DC"/>
<path d="M1170.25 148.451C1170.29 148.847 1170.64 149.137 1171.04 149.097C1171.44 149.058 1171.73 148.705 1171.69 148.308C1171.65 147.912 1171.3 147.622 1170.9 147.662C1170.5 147.701 1170.21 148.054 1170.25 148.451Z" fill="#8E84DC"/>
<path d="M1169.78 143.69C1169.82 144.086 1170.17 144.375 1170.57 144.336C1170.97 144.296 1171.26 143.943 1171.22 143.547C1171.18 143.15 1170.83 142.861 1170.43 142.9C1170.03 142.94 1169.74 143.293 1169.78 143.69Z" fill="#8E84DC"/>
<path d="M1169.31 138.925C1169.34 139.322 1169.7 139.611 1170.1 139.572C1170.5 139.532 1170.79 139.179 1170.75 138.783C1170.71 138.386 1170.35 138.097 1169.96 138.136C1169.56 138.176 1169.27 138.529 1169.31 138.925Z" fill="#8E84DC"/>
<path d="M1168.83 134.164C1168.87 134.56 1169.23 134.85 1169.63 134.81C1170.03 134.771 1170.32 134.418 1170.28 134.021C1170.24 133.625 1169.88 133.335 1169.49 133.375C1169.09 133.414 1168.8 133.767 1168.83 134.164Z" fill="#8E84DC"/>
<path d="M1168.36 129.403C1168.4 129.799 1168.76 130.088 1169.16 130.049C1169.56 130.009 1169.85 129.656 1169.81 129.26C1169.77 128.863 1169.41 128.574 1169.01 128.613C1168.62 128.653 1168.32 129.006 1168.36 129.403Z" fill="#8E84DC"/>
<path d="M1167.89 124.641C1167.93 125.038 1168.29 125.327 1168.69 125.288C1169.08 125.248 1169.38 124.895 1169.34 124.498C1169.3 124.102 1168.94 123.813 1168.54 123.852C1168.15 123.892 1167.85 124.245 1167.89 124.641Z" fill="#8E84DC"/>
<path d="M1167.42 119.88C1167.46 120.276 1167.82 120.565 1168.22 120.526C1168.61 120.487 1168.91 120.134 1168.87 119.737C1168.83 119.34 1168.47 119.051 1168.07 119.091C1167.67 119.13 1167.38 119.483 1167.42 119.88Z" fill="#8E84DC"/>
<path d="M1174.83 164.826C1174.87 165.223 1175.23 165.512 1175.63 165.473C1176.03 165.433 1176.32 165.08 1176.28 164.684C1176.24 164.287 1175.88 163.998 1175.49 164.037C1175.09 164.077 1174.8 164.43 1174.83 164.826Z" fill="#8E84DC"/>
<path d="M1174.36 160.065C1174.4 160.462 1174.76 160.751 1175.16 160.711C1175.56 160.672 1175.85 160.319 1175.81 159.922C1175.77 159.526 1175.41 159.237 1175.02 159.276C1174.62 159.315 1174.33 159.669 1174.36 160.065Z" fill="#8E84DC"/>
<path d="M1173.89 155.301C1173.93 155.697 1174.29 155.987 1174.69 155.947C1175.08 155.908 1175.38 155.555 1175.34 155.158C1175.3 154.762 1174.94 154.472 1174.54 154.512C1174.15 154.551 1173.85 154.904 1173.89 155.301Z" fill="#8E84DC"/>
<path d="M1173.42 150.54C1173.46 150.936 1173.82 151.225 1174.22 151.186C1174.61 151.146 1174.91 150.793 1174.87 150.397C1174.83 150 1174.47 149.711 1174.07 149.751C1173.67 149.79 1173.38 150.143 1173.42 150.54Z" fill="#8E84DC"/>
<path d="M1172.95 145.778C1172.99 146.175 1173.35 146.464 1173.74 146.424C1174.14 146.385 1174.43 146.032 1174.4 145.635C1174.36 145.239 1174 144.95 1173.6 144.989C1173.2 145.029 1172.91 145.382 1172.95 145.778Z" fill="#8E84DC"/>
<path d="M1172.48 141.017C1172.52 141.413 1172.88 141.703 1173.27 141.663C1173.67 141.624 1173.96 141.271 1173.93 140.874C1173.89 140.477 1173.53 140.188 1173.13 140.228C1172.73 140.267 1172.44 140.62 1172.48 141.017Z" fill="#8E84DC"/>
<path d="M1172.01 136.255C1172.05 136.652 1172.4 136.941 1172.8 136.902C1173.2 136.862 1173.49 136.509 1173.45 136.113C1173.42 135.716 1173.06 135.427 1172.66 135.466C1172.26 135.506 1171.97 135.859 1172.01 136.255Z" fill="#8E84DC"/>
<path d="M1171.54 131.494C1171.58 131.891 1171.93 132.18 1172.33 132.14C1172.73 132.101 1173.02 131.748 1172.98 131.351C1172.94 130.955 1172.59 130.665 1172.19 130.705C1171.79 130.744 1171.5 131.097 1171.54 131.494Z" fill="#8E84DC"/>
<path d="M1171.07 126.733C1171.11 127.129 1171.46 127.418 1171.86 127.379C1172.26 127.339 1172.55 126.986 1172.51 126.59C1172.47 126.193 1172.12 125.904 1171.72 125.944C1171.32 125.983 1171.03 126.336 1171.07 126.733Z" fill="#8E84DC"/>
<path d="M1170.6 121.968C1170.64 122.365 1170.99 122.654 1171.39 122.615C1171.79 122.575 1172.08 122.222 1172.04 121.826C1172 121.429 1171.65 121.14 1171.25 121.179C1170.85 121.219 1170.56 121.572 1170.6 121.968Z" fill="#8E84DC"/>
<path d="M1171.57 117.064C1171.56 116.871 1171.47 116.705 1171.32 116.581C1170.92 116.723 1170.52 116.872 1170.14 117.031C1170.12 117.089 1170.12 117.143 1170.13 117.207C1170.17 117.601 1170.52 117.89 1170.92 117.851C1171.31 117.812 1171.61 117.458 1171.57 117.064Z" fill="#8E84DC"/>
<path d="M1177.98 162.11C1178.02 162.507 1178.38 162.796 1178.77 162.756C1179.17 162.717 1179.46 162.364 1179.42 161.967C1179.39 161.571 1179.03 161.282 1178.63 161.321C1178.23 161.361 1177.94 161.714 1177.98 162.11Z" fill="#8E84DC"/>
<path d="M1177.51 157.349C1177.55 157.745 1177.9 158.034 1178.3 157.995C1178.7 157.956 1178.99 157.603 1178.95 157.206C1178.91 156.809 1178.56 156.52 1178.16 156.56C1177.76 156.599 1177.47 156.952 1177.51 157.349Z" fill="#8E84DC"/>
<path d="M1177.04 152.587C1177.08 152.984 1177.43 153.273 1177.83 153.234C1178.23 153.194 1178.52 152.841 1178.48 152.445C1178.44 152.048 1178.09 151.759 1177.69 151.798C1177.29 151.838 1177 152.191 1177.04 152.587Z" fill="#8E84DC"/>
<path d="M1176.57 147.826C1176.61 148.222 1176.96 148.512 1177.36 148.472C1177.76 148.433 1178.05 148.08 1178.01 147.683C1177.97 147.287 1177.62 146.997 1177.22 147.037C1176.82 147.076 1176.53 147.429 1176.57 147.826Z" fill="#8E84DC"/>
<path d="M1176.1 143.065C1176.14 143.461 1176.49 143.75 1176.89 143.711C1177.29 143.671 1177.58 143.318 1177.54 142.922C1177.5 142.525 1177.15 142.236 1176.75 142.275C1176.35 142.315 1176.06 142.668 1176.1 143.065Z" fill="#8E84DC"/>
<path d="M1175.63 138.3C1175.67 138.697 1176.02 138.986 1176.42 138.947C1176.82 138.907 1177.11 138.554 1177.07 138.158C1177.03 137.761 1176.68 137.472 1176.28 137.511C1175.88 137.551 1175.59 137.904 1175.63 138.3Z" fill="#8E84DC"/>
<path d="M1175.16 133.539C1175.2 133.935 1175.55 134.225 1175.95 134.185C1176.35 134.146 1176.64 133.793 1176.6 133.396C1176.56 133 1176.21 132.71 1175.81 132.75C1175.41 132.789 1175.12 133.142 1175.16 133.539Z" fill="#8E84DC"/>
<path d="M1174.69 128.778C1174.73 129.174 1175.08 129.463 1175.48 129.424C1175.88 129.384 1176.17 129.031 1176.13 128.635C1176.09 128.238 1175.74 127.949 1175.34 127.988C1174.94 128.028 1174.65 128.381 1174.69 128.778Z" fill="#8E84DC"/>
<path d="M1174.22 124.016C1174.25 124.413 1174.61 124.702 1175.01 124.663C1175.41 124.623 1175.7 124.27 1175.66 123.873C1175.62 123.477 1175.27 123.188 1174.87 123.227C1174.47 123.267 1174.18 123.62 1174.22 124.016Z" fill="#8E84DC"/>
<path d="M1173.74 119.255C1173.78 119.651 1174.14 119.941 1174.54 119.901C1174.94 119.862 1175.23 119.509 1175.19 119.112C1175.15 118.715 1174.79 118.426 1174.4 118.466C1174 118.505 1173.71 118.858 1173.74 119.255Z" fill="#8E84DC"/>
<path d="M1181.15 164.202C1181.19 164.598 1181.55 164.888 1181.95 164.848C1182.35 164.809 1182.64 164.456 1182.6 164.059C1182.56 163.663 1182.2 163.373 1181.81 163.413C1181.41 163.452 1181.12 163.805 1181.15 164.202Z" fill="#8E84DC"/>
<path d="M1180.68 159.44C1180.72 159.837 1181.08 160.126 1181.48 160.087C1181.88 160.047 1182.17 159.694 1182.13 159.298C1182.09 158.901 1181.73 158.612 1181.33 158.651C1180.94 158.691 1180.64 159.044 1180.68 159.44Z" fill="#8E84DC"/>
<path d="M1180.21 154.676C1180.25 155.073 1180.61 155.362 1181.01 155.323C1181.4 155.283 1181.7 154.93 1181.66 154.533C1181.62 154.137 1181.26 153.848 1180.86 153.887C1180.47 153.927 1180.17 154.28 1180.21 154.676Z" fill="#8E84DC"/>
<path d="M1179.74 149.915C1179.78 150.311 1180.14 150.601 1180.54 150.561C1180.93 150.522 1181.23 150.169 1181.19 149.772C1181.15 149.376 1180.79 149.086 1180.39 149.126C1179.99 149.165 1179.7 149.518 1179.74 149.915Z" fill="#8E84DC"/>
<path d="M1179.27 145.153C1179.31 145.55 1179.67 145.839 1180.06 145.8C1180.46 145.76 1180.75 145.407 1180.72 145.011C1180.68 144.614 1180.32 144.325 1179.92 144.364C1179.52 144.404 1179.23 144.757 1179.27 145.153Z" fill="#8E84DC"/>
<path d="M1178.8 140.392C1178.84 140.789 1179.19 141.078 1179.59 141.038C1179.99 140.999 1180.28 140.646 1180.24 140.249C1180.21 139.853 1179.85 139.564 1179.45 139.603C1179.05 139.642 1178.76 139.996 1178.8 140.392Z" fill="#8E84DC"/>
<path d="M1178.33 135.631C1178.37 136.027 1178.72 136.316 1179.12 136.277C1179.52 136.238 1179.81 135.884 1179.77 135.488C1179.73 135.091 1179.38 134.802 1178.98 134.842C1178.58 134.881 1178.29 135.234 1178.33 135.631Z" fill="#8E84DC"/>
<path d="M1177.86 130.869C1177.9 131.266 1178.25 131.555 1178.65 131.516C1179.05 131.476 1179.34 131.123 1179.3 130.727C1179.26 130.33 1178.91 130.041 1178.51 130.08C1178.11 130.12 1177.82 130.473 1177.86 130.869Z" fill="#8E84DC"/>
<path d="M1177.39 126.108C1177.43 126.504 1177.78 126.794 1178.18 126.754C1178.58 126.715 1178.87 126.362 1178.83 125.965C1178.79 125.569 1178.44 125.279 1178.04 125.319C1177.64 125.358 1177.35 125.711 1177.39 126.108Z" fill="#8E84DC"/>
<path d="M1176.92 121.344C1176.96 121.74 1177.31 122.029 1177.71 121.99C1178.11 121.951 1178.4 121.598 1178.36 121.201C1178.32 120.804 1177.97 120.515 1177.57 120.555C1177.17 120.594 1176.88 120.947 1176.92 121.344Z" fill="#8E84DC"/>
<path d="M1177.89 116.439C1177.85 116.043 1177.5 115.753 1177.1 115.793C1176.7 115.832 1176.41 116.185 1176.45 116.582C1176.49 116.979 1176.84 117.268 1177.24 117.228C1177.64 117.189 1177.93 116.836 1177.89 116.439Z" fill="#8E84DC"/>
<path d="M1184.3 161.485C1184.34 161.882 1184.69 162.171 1185.09 162.132C1185.49 162.092 1185.78 161.739 1185.74 161.343C1185.71 160.946 1185.35 160.657 1184.95 160.696C1184.55 160.736 1184.26 161.089 1184.3 161.485Z" fill="#8E84DC"/>
<path d="M1183.83 156.724C1183.87 157.121 1184.22 157.41 1184.62 157.37C1185.02 157.331 1185.31 156.978 1185.27 156.581C1185.23 156.185 1184.88 155.895 1184.48 155.935C1184.08 155.974 1183.79 156.327 1183.83 156.724Z" fill="#8E84DC"/>
<path d="M1183.36 151.963C1183.4 152.359 1183.75 152.648 1184.15 152.609C1184.55 152.57 1184.84 152.217 1184.8 151.82C1184.76 151.423 1184.41 151.134 1184.01 151.174C1183.61 151.213 1183.32 151.566 1183.36 151.963Z" fill="#8E84DC"/>
<path d="M1182.89 147.201C1182.93 147.598 1183.28 147.887 1183.68 147.848C1184.08 147.808 1184.37 147.455 1184.33 147.059C1184.29 146.662 1183.94 146.373 1183.54 146.412C1183.14 146.452 1182.85 146.805 1182.89 147.201Z" fill="#8E84DC"/>
<path d="M1182.42 142.44C1182.46 142.836 1182.81 143.126 1183.21 143.086C1183.61 143.047 1183.9 142.694 1183.86 142.297C1183.82 141.901 1183.47 141.611 1183.07 141.651C1182.67 141.69 1182.38 142.043 1182.42 142.44Z" fill="#8E84DC"/>
<path d="M1181.95 137.676C1181.99 138.072 1182.34 138.361 1182.74 138.322C1183.14 138.283 1183.43 137.93 1183.39 137.533C1183.35 137.136 1183 136.847 1182.6 136.887C1182.2 136.926 1181.91 137.279 1181.95 137.676Z" fill="#8E84DC"/>
<path d="M1181.48 132.914C1181.52 133.311 1181.87 133.6 1182.27 133.561C1182.67 133.521 1182.96 133.168 1182.92 132.772C1182.88 132.375 1182.53 132.086 1182.13 132.125C1181.73 132.165 1181.44 132.518 1181.48 132.914Z" fill="#8E84DC"/>
<path d="M1181.01 128.153C1181.05 128.549 1181.4 128.839 1181.8 128.799C1182.2 128.76 1182.49 128.407 1182.45 128.01C1182.41 127.614 1182.06 127.324 1181.66 127.364C1181.26 127.403 1180.97 127.756 1181.01 128.153Z" fill="#8E84DC"/>
<path d="M1180.54 123.392C1180.57 123.788 1180.93 124.077 1181.33 124.038C1181.73 123.998 1182.02 123.645 1181.98 123.249C1181.94 122.852 1181.59 122.563 1181.19 122.602C1180.79 122.642 1180.5 122.995 1180.54 123.392Z" fill="#8E84DC"/>
<path d="M1180.06 118.63C1180.1 119.027 1180.46 119.316 1180.86 119.276C1181.26 119.237 1181.55 118.884 1181.51 118.487C1181.47 118.091 1181.11 117.802 1180.72 117.841C1180.32 117.88 1180.03 118.233 1180.06 118.63Z" fill="#8E84DC"/>
<path d="M1187.47 163.577C1187.51 163.974 1187.87 164.263 1188.27 164.223C1188.67 164.184 1188.96 163.831 1188.92 163.434C1188.88 163.038 1188.52 162.749 1188.13 162.788C1187.73 162.828 1187.44 163.181 1187.47 163.577Z" fill="#8E84DC"/>
<path d="M1187 158.816C1187.04 159.212 1187.4 159.502 1187.8 159.462C1188.2 159.423 1188.49 159.07 1188.45 158.673C1188.41 158.276 1188.05 157.987 1187.65 158.027C1187.26 158.066 1186.96 158.419 1187 158.816Z" fill="#8E84DC"/>
<path d="M1186.53 154.051C1186.57 154.448 1186.93 154.737 1187.33 154.698C1187.72 154.658 1188.02 154.305 1187.98 153.909C1187.94 153.512 1187.58 153.223 1187.18 153.262C1186.78 153.302 1186.49 153.655 1186.53 154.051Z" fill="#8E84DC"/>
<path d="M1186.06 149.29C1186.1 149.687 1186.46 149.976 1186.85 149.937C1187.25 149.897 1187.54 149.544 1187.51 149.148C1187.47 148.751 1187.11 148.462 1186.71 148.501C1186.31 148.541 1186.02 148.894 1186.06 149.29Z" fill="#8E84DC"/>
<path d="M1185.59 144.529C1185.63 144.925 1185.99 145.215 1186.38 145.175C1186.78 145.136 1187.07 144.783 1187.04 144.386C1187 143.99 1186.64 143.7 1186.24 143.74C1185.84 143.779 1185.55 144.132 1185.59 144.529Z" fill="#8E84DC"/>
<path d="M1185.12 139.767C1185.16 140.164 1185.51 140.453 1185.91 140.414C1186.31 140.374 1186.6 140.021 1186.56 139.625C1186.53 139.228 1186.17 138.939 1185.77 138.978C1185.37 139.018 1185.08 139.371 1185.12 139.767Z" fill="#8E84DC"/>
<path d="M1184.65 135.006C1184.69 135.402 1185.04 135.692 1185.44 135.652C1185.84 135.613 1186.13 135.26 1186.09 134.863C1186.05 134.467 1185.7 134.177 1185.3 134.217C1184.9 134.256 1184.61 134.609 1184.65 135.006Z" fill="#8E84DC"/>
<path d="M1184.18 130.245C1184.22 130.641 1184.57 130.93 1184.97 130.891C1185.37 130.852 1185.66 130.498 1185.62 130.102C1185.58 129.705 1185.23 129.416 1184.83 129.456C1184.43 129.495 1184.14 129.848 1184.18 130.245Z" fill="#8E84DC"/>
<path d="M1183.71 125.483C1183.75 125.88 1184.1 126.169 1184.5 126.13C1184.9 126.09 1185.19 125.737 1185.15 125.34C1185.11 124.944 1184.76 124.655 1184.36 124.694C1183.96 124.734 1183.67 125.087 1183.71 125.483Z" fill="#8E84DC"/>
<path d="M1183.24 120.719C1183.28 121.116 1183.63 121.405 1184.03 121.365C1184.43 121.326 1184.72 120.973 1184.68 120.576C1184.64 120.18 1184.29 119.891 1183.89 119.93C1183.49 119.969 1183.2 120.322 1183.24 120.719Z" fill="#8E84DC"/>
<path d="M1182.77 115.958C1182.81 116.354 1183.16 116.643 1183.56 116.604C1183.96 116.564 1184.25 116.211 1184.21 115.815C1184.17 115.418 1183.82 115.129 1183.42 115.169C1183.02 115.208 1182.73 115.561 1182.77 115.958Z" fill="#8E84DC"/>
<path d="M1190.62 160.861C1190.66 161.257 1191.01 161.547 1191.41 161.507C1191.81 161.468 1192.1 161.115 1192.06 160.718C1192.03 160.322 1191.67 160.032 1191.27 160.072C1190.87 160.111 1190.58 160.464 1190.62 160.861Z" fill="#8E84DC"/>
<path d="M1190.15 156.099C1190.19 156.496 1190.54 156.785 1190.94 156.746C1191.34 156.706 1191.63 156.353 1191.59 155.957C1191.55 155.56 1191.2 155.271 1190.8 155.31C1190.4 155.35 1190.11 155.703 1190.15 156.099Z" fill="#8E84DC"/>
<path d="M1189.68 151.338C1189.72 151.735 1190.07 152.024 1190.47 151.984C1190.87 151.945 1191.16 151.592 1191.12 151.195C1191.08 150.799 1190.73 150.51 1190.33 150.549C1189.93 150.588 1189.64 150.941 1189.68 151.338Z" fill="#8E84DC"/>
<path d="M1189.21 146.577C1189.25 146.973 1189.6 147.262 1190 147.223C1190.4 147.183 1190.69 146.83 1190.65 146.434C1190.61 146.037 1190.26 145.748 1189.86 145.788C1189.46 145.827 1189.17 146.18 1189.21 146.577Z" fill="#8E84DC"/>
<path d="M1188.74 141.815C1188.78 142.212 1189.13 142.501 1189.53 142.462C1189.93 142.422 1190.22 142.069 1190.18 141.673C1190.14 141.276 1189.79 140.987 1189.39 141.026C1188.99 141.066 1188.7 141.419 1188.74 141.815Z" fill="#8E84DC"/>
<path d="M1188.27 137.051C1188.31 137.448 1188.66 137.737 1189.06 137.697C1189.46 137.658 1189.75 137.305 1189.71 136.908C1189.67 136.512 1189.32 136.223 1188.92 136.262C1188.52 136.301 1188.23 136.654 1188.27 137.051Z" fill="#8E84DC"/>
<path d="M1187.8 132.29C1187.84 132.686 1188.19 132.975 1188.59 132.936C1188.99 132.896 1189.28 132.543 1189.24 132.147C1189.2 131.75 1188.85 131.461 1188.45 131.5C1188.05 131.54 1187.76 131.893 1187.8 132.29Z" fill="#8E84DC"/>
<path d="M1187.33 127.528C1187.36 127.925 1187.72 128.214 1188.12 128.175C1188.52 128.135 1188.81 127.782 1188.77 127.385C1188.73 126.989 1188.38 126.7 1187.98 126.739C1187.58 126.779 1187.29 127.132 1187.33 127.528Z" fill="#8E84DC"/>
<path d="M1186.86 122.767C1186.89 123.163 1187.25 123.453 1187.65 123.413C1188.05 123.374 1188.34 123.021 1188.3 122.624C1188.26 122.228 1187.9 121.938 1187.51 121.978C1187.11 122.017 1186.82 122.37 1186.86 122.767Z" fill="#8E84DC"/>
<path d="M1186.38 118.005C1186.42 118.402 1186.78 118.691 1187.18 118.652C1187.58 118.612 1187.87 118.259 1187.83 117.863C1187.79 117.466 1187.43 117.177 1187.04 117.216C1186.64 117.256 1186.35 117.609 1186.38 118.005Z" fill="#8E84DC"/>
<path d="M1193.79 162.952C1193.83 163.349 1194.19 163.638 1194.59 163.599C1194.99 163.559 1195.28 163.206 1195.24 162.81C1195.2 162.413 1194.84 162.124 1194.44 162.163C1194.05 162.203 1193.75 162.556 1193.79 162.952Z" fill="#8E84DC"/>
<path d="M1193.32 158.191C1193.36 158.588 1193.72 158.877 1194.12 158.837C1194.51 158.798 1194.81 158.445 1194.77 158.048C1194.73 157.652 1194.37 157.363 1193.97 157.402C1193.58 157.441 1193.28 157.795 1193.32 158.191Z" fill="#8E84DC"/>
<path d="M1192.85 153.427C1192.89 153.823 1193.25 154.113 1193.65 154.073C1194.04 154.034 1194.34 153.681 1194.3 153.284C1194.26 152.888 1193.9 152.598 1193.5 152.638C1193.1 152.677 1192.81 153.03 1192.85 153.427Z" fill="#8E84DC"/>
<path d="M1192.38 148.665C1192.42 149.062 1192.78 149.351 1193.17 149.312C1193.57 149.272 1193.86 148.919 1193.83 148.523C1193.79 148.126 1193.43 147.837 1193.03 147.876C1192.63 147.916 1192.34 148.269 1192.38 148.665Z" fill="#8E84DC"/>
<path d="M1191.91 143.904C1191.95 144.301 1192.3 144.59 1192.7 144.55C1193.1 144.511 1193.39 144.158 1193.35 143.761C1193.32 143.365 1192.96 143.076 1192.56 143.115C1192.16 143.154 1191.87 143.507 1191.91 143.904Z" fill="#8E84DC"/>
<path d="M1191.44 139.143C1191.48 139.539 1191.83 139.828 1192.23 139.789C1192.63 139.75 1192.92 139.397 1192.88 139C1192.84 138.603 1192.49 138.314 1192.09 138.354C1191.69 138.393 1191.4 138.746 1191.44 139.143Z" fill="#8E84DC"/>
<path d="M1190.97 134.381C1191.01 134.778 1191.36 135.067 1191.76 135.028C1192.16 134.988 1192.45 134.635 1192.41 134.239C1192.37 133.842 1192.02 133.553 1191.62 133.592C1191.22 133.632 1190.93 133.985 1190.97 134.381Z" fill="#8E84DC"/>
<path d="M1190.5 129.62C1190.54 130.016 1190.89 130.306 1191.29 130.266C1191.69 130.227 1191.98 129.874 1191.94 129.477C1191.9 129.081 1191.55 128.791 1191.15 128.831C1190.75 128.87 1190.46 129.223 1190.5 129.62Z" fill="#8E84DC"/>
<path d="M1190.03 124.859C1190.07 125.255 1190.42 125.544 1190.82 125.505C1191.22 125.465 1191.51 125.112 1191.47 124.716C1191.43 124.319 1191.08 124.03 1190.68 124.069C1190.28 124.109 1189.99 124.462 1190.03 124.859Z" fill="#8E84DC"/>
<path d="M1189.56 120.094C1189.6 120.491 1189.95 120.78 1190.35 120.741C1190.75 120.701 1191.04 120.348 1191 119.952C1190.96 119.555 1190.61 119.266 1190.21 119.305C1189.81 119.345 1189.52 119.698 1189.56 120.094Z" fill="#8E84DC"/>
<path d="M1190.09 115.919C1189.8 115.846 1189.52 115.764 1189.23 115.691C1189.38 115.888 1189.62 116.004 1189.88 115.979C1189.96 115.972 1190.03 115.956 1190.09 115.922L1190.09 115.919Z" fill="#8E84DC"/>
<path d="M1196.94 160.236C1196.98 160.633 1197.33 160.922 1197.73 160.882C1198.13 160.843 1198.42 160.49 1198.38 160.093C1198.34 159.697 1197.99 159.408 1197.59 159.447C1197.19 159.486 1196.9 159.84 1196.94 160.236Z" fill="#8E84DC"/>
<path d="M1196.47 155.475C1196.51 155.871 1196.86 156.16 1197.26 156.121C1197.66 156.082 1197.95 155.728 1197.91 155.332C1197.87 154.935 1197.52 154.646 1197.12 154.686C1196.72 154.725 1196.43 155.078 1196.47 155.475Z" fill="#8E84DC"/>
<path d="M1196 150.713C1196.04 151.11 1196.39 151.399 1196.79 151.36C1197.19 151.32 1197.48 150.967 1197.44 150.571C1197.4 150.174 1197.05 149.885 1196.65 149.924C1196.25 149.964 1195.96 150.317 1196 150.713Z" fill="#8E84DC"/>
<path d="M1195.53 145.952C1195.57 146.348 1195.92 146.638 1196.32 146.598C1196.72 146.559 1197.01 146.206 1196.97 145.809C1196.93 145.413 1196.58 145.123 1196.18 145.163C1195.78 145.202 1195.49 145.555 1195.53 145.952Z" fill="#8E84DC"/>
<path d="M1195.06 141.19C1195.1 141.587 1195.45 141.876 1195.85 141.837C1196.25 141.797 1196.54 141.444 1196.5 141.048C1196.46 140.651 1196.11 140.362 1195.71 140.401C1195.31 140.441 1195.02 140.794 1195.06 141.19Z" fill="#8E84DC"/>
<path d="M1194.59 136.426C1194.63 136.823 1194.98 137.112 1195.38 137.073C1195.78 137.033 1196.07 136.68 1196.03 136.284C1195.99 135.887 1195.64 135.598 1195.24 135.637C1194.84 135.677 1194.55 136.03 1194.59 136.426Z" fill="#8E84DC"/>
<path d="M1194.12 131.665C1194.16 132.061 1194.51 132.351 1194.91 132.311C1195.31 132.272 1195.6 131.919 1195.56 131.522C1195.52 131.126 1195.17 130.836 1194.77 130.876C1194.37 130.915 1194.08 131.268 1194.12 131.665Z" fill="#8E84DC"/>
<path d="M1193.65 126.903C1193.68 127.3 1194.04 127.589 1194.44 127.55C1194.84 127.51 1195.13 127.157 1195.09 126.761C1195.05 126.364 1194.7 126.075 1194.3 126.114C1193.9 126.154 1193.61 126.507 1193.65 126.903Z" fill="#8E84DC"/>
<path d="M1193.17 122.142C1193.21 122.539 1193.57 122.828 1193.97 122.788C1194.37 122.749 1194.66 122.396 1194.62 121.999C1194.58 121.603 1194.22 121.314 1193.83 121.353C1193.43 121.393 1193.14 121.746 1193.17 122.142Z" fill="#8E84DC"/>
<path d="M1193.5 118.024C1193.85 117.99 1194.11 117.724 1194.14 117.405C1193.71 117.216 1193.28 117.027 1192.85 116.867C1192.74 117.007 1192.69 117.188 1192.71 117.38C1192.75 117.774 1193.1 118.063 1193.5 118.024Z" fill="#8E84DC"/>
<path d="M1200.11 162.328C1200.15 162.724 1200.51 163.014 1200.91 162.974C1201.31 162.935 1201.6 162.582 1201.56 162.185C1201.52 161.788 1201.16 161.499 1200.76 161.539C1200.37 161.578 1200.07 161.931 1200.11 162.328Z" fill="#8E84DC"/>
<path d="M1199.64 157.566C1199.68 157.963 1200.04 158.252 1200.44 158.213C1200.83 158.173 1201.13 157.82 1201.09 157.424C1201.05 157.027 1200.69 156.738 1200.29 156.777C1199.9 156.817 1199.6 157.17 1199.64 157.566Z" fill="#8E84DC"/>
<path d="M1199.17 152.802C1199.21 153.199 1199.57 153.488 1199.96 153.448C1200.36 153.409 1200.65 153.056 1200.62 152.659C1200.58 152.263 1200.22 151.974 1199.82 152.013C1199.42 152.052 1199.13 152.406 1199.17 152.802Z" fill="#8E84DC"/>
<path d="M1198.7 148.041C1198.74 148.437 1199.1 148.727 1199.49 148.687C1199.89 148.648 1200.18 148.295 1200.15 147.898C1200.11 147.502 1199.75 147.212 1199.35 147.252C1198.95 147.291 1198.66 147.644 1198.7 148.041Z" fill="#8E84DC"/>
<path d="M1198.23 143.279C1198.27 143.676 1198.62 143.965 1199.02 143.926C1199.42 143.886 1199.71 143.533 1199.67 143.137C1199.64 142.74 1199.28 142.451 1198.88 142.49C1198.48 142.53 1198.19 142.883 1198.23 143.279Z" fill="#8E84DC"/>
<path d="M1197.76 138.518C1197.8 138.915 1198.15 139.204 1198.55 139.164C1198.95 139.125 1199.24 138.772 1199.2 138.375C1199.16 137.979 1198.81 137.69 1198.41 137.729C1198.01 137.768 1197.72 138.121 1197.76 138.518Z" fill="#8E84DC"/>
<path d="M1197.29 133.757C1197.33 134.153 1197.68 134.442 1198.08 134.403C1198.48 134.363 1198.77 134.01 1198.73 133.614C1198.69 133.217 1198.34 132.928 1197.94 132.967C1197.54 133.007 1197.25 133.36 1197.29 133.757Z" fill="#8E84DC"/>
<path d="M1196.82 128.995C1196.86 129.392 1197.21 129.681 1197.61 129.642C1198.01 129.602 1198.3 129.249 1198.26 128.852C1198.22 128.456 1197.87 128.167 1197.47 128.206C1197.07 128.246 1196.78 128.599 1196.82 128.995Z" fill="#8E84DC"/>
<path d="M1196.35 124.234C1196.39 124.63 1196.74 124.92 1197.14 124.88C1197.54 124.841 1197.83 124.488 1197.79 124.091C1197.75 123.695 1197.4 123.405 1197 123.445C1196.6 123.484 1196.31 123.837 1196.35 124.234Z" fill="#8E84DC"/>
<path d="M1195.88 119.469C1195.92 119.863 1196.27 120.161 1196.67 120.122C1197.07 120.082 1197.37 119.72 1197.33 119.326C1197.31 119.198 1197.27 119.081 1197.2 118.986C1197.02 118.883 1196.85 118.781 1196.68 118.686C1196.63 118.682 1196.57 118.676 1196.53 118.681C1196.13 118.72 1195.84 119.073 1195.88 119.467L1195.88 119.469Z" fill="#8E84DC"/>
<path d="M1203.26 159.611C1203.3 160.008 1203.65 160.297 1204.05 160.258C1204.45 160.218 1204.74 159.865 1204.7 159.469C1204.66 159.072 1204.31 158.783 1203.91 158.822C1203.51 158.862 1203.22 159.215 1203.26 159.611Z" fill="#8E84DC"/>
<path d="M1202.79 154.85C1202.83 155.246 1203.18 155.536 1203.58 155.496C1203.98 155.457 1204.27 155.104 1204.23 154.707C1204.19 154.311 1203.84 154.021 1203.44 154.061C1203.04 154.1 1202.75 154.453 1202.79 154.85Z" fill="#8E84DC"/>
<path d="M1202.32 150.089C1202.36 150.485 1202.71 150.774 1203.11 150.735C1203.51 150.696 1203.8 150.342 1203.76 149.946C1203.72 149.549 1203.37 149.26 1202.97 149.3C1202.57 149.339 1202.28 149.692 1202.32 150.089Z" fill="#8E84DC"/>
<path d="M1201.85 145.327C1201.89 145.724 1202.24 146.013 1202.64 145.974C1203.04 145.934 1203.33 145.581 1203.29 145.184C1203.25 144.788 1202.9 144.499 1202.5 144.538C1202.1 144.578 1201.81 144.931 1201.85 145.327Z" fill="#8E84DC"/>
<path d="M1201.38 140.566C1201.42 140.962 1201.77 141.252 1202.17 141.212C1202.57 141.173 1202.86 140.82 1202.82 140.423C1202.78 140.027 1202.43 139.737 1202.03 139.777C1201.63 139.816 1201.34 140.169 1201.38 140.566Z" fill="#8E84DC"/>
<path d="M1200.91 135.802C1200.95 136.198 1201.3 136.487 1201.7 136.448C1202.1 136.409 1202.39 136.055 1202.35 135.659C1202.31 135.262 1201.96 134.973 1201.56 135.013C1201.16 135.052 1200.87 135.405 1200.91 135.802Z" fill="#8E84DC"/>
<path d="M1200.44 131.04C1200.47 131.437 1200.83 131.726 1201.23 131.687C1201.63 131.647 1201.92 131.294 1201.88 130.897C1201.84 130.501 1201.49 130.212 1201.09 130.251C1200.69 130.291 1200.4 130.644 1200.44 131.04Z" fill="#8E84DC"/>
<path d="M1199.97 126.279C1200 126.675 1200.36 126.965 1200.76 126.925C1201.16 126.886 1201.45 126.533 1201.41 126.136C1201.37 125.74 1201.01 125.45 1200.62 125.49C1200.22 125.529 1199.93 125.882 1199.97 126.279Z" fill="#8E84DC"/>
<path d="M1199.49 121.517C1199.53 121.911 1199.89 122.209 1200.29 122.169C1200.62 122.137 1200.87 121.889 1200.93 121.587C1200.59 121.316 1200.26 121.061 1199.92 120.799C1199.64 120.919 1199.46 121.205 1199.49 121.515L1199.49 121.517Z" fill="#8E84DC"/>
<path d="M1206.43 161.7C1206.45 161.845 1206.51 161.981 1206.59 162.082C1206.85 161.704 1207.11 161.328 1207.35 160.935C1207.28 160.915 1207.18 160.907 1207.09 160.916C1206.69 160.956 1206.39 161.309 1206.43 161.703L1206.43 161.7Z" fill="#8E84DC"/>
<path d="M1205.96 156.942C1206 157.338 1206.36 157.627 1206.76 157.588C1207.15 157.549 1207.45 157.196 1207.41 156.799C1207.37 156.402 1207.01 156.113 1206.61 156.153C1206.21 156.192 1205.92 156.545 1205.96 156.942Z" fill="#8E84DC"/>
<path d="M1205.49 152.177C1205.53 152.574 1205.89 152.863 1206.28 152.824C1206.68 152.784 1206.97 152.431 1206.94 152.035C1206.9 151.638 1206.54 151.349 1206.14 151.388C1205.74 151.428 1205.45 151.781 1205.49 152.177Z" fill="#8E84DC"/>
<path d="M1205.02 147.416C1205.06 147.813 1205.42 148.102 1205.81 148.062C1206.21 148.023 1206.5 147.67 1206.46 147.273C1206.43 146.877 1206.07 146.588 1205.67 146.627C1205.27 146.667 1204.98 147.02 1205.02 147.416Z" fill="#8E84DC"/>
<path d="M1204.55 142.655C1204.59 143.051 1204.94 143.34 1205.34 143.301C1205.74 143.262 1206.03 142.909 1205.99 142.512C1205.95 142.115 1205.6 141.826 1205.2 141.866C1204.8 141.905 1204.51 142.258 1204.55 142.655Z" fill="#8E84DC"/>
<path d="M1204.08 137.893C1204.12 138.29 1204.47 138.579 1204.87 138.54C1205.27 138.5 1205.56 138.147 1205.52 137.751C1205.48 137.354 1205.13 137.065 1204.73 137.104C1204.33 137.144 1204.04 137.497 1204.08 137.893Z" fill="#8E84DC"/>
<path d="M1203.61 133.132C1203.65 133.528 1204 133.818 1204.4 133.778C1204.8 133.739 1205.09 133.386 1205.05 132.989C1205.01 132.593 1204.66 132.303 1204.26 132.343C1203.86 132.382 1203.57 132.735 1203.61 133.132Z" fill="#8E84DC"/>
<path d="M1203.14 128.37C1203.18 128.767 1203.53 129.056 1203.93 129.017C1204.33 128.977 1204.62 128.624 1204.58 128.228C1204.54 127.831 1204.19 127.542 1203.79 127.581C1203.39 127.621 1203.1 127.974 1203.14 128.37Z" fill="#8E84DC"/>
<path d="M1203.47 124.258C1203.56 124.249 1203.65 124.22 1203.73 124.176C1203.41 123.838 1203.08 123.518 1202.75 123.201C1202.69 123.328 1202.65 123.461 1202.67 123.606C1202.71 124 1203.06 124.298 1203.47 124.258Z" fill="#8E84DC"/>
<path d="M1209.11 154.223C1209.15 154.625 1209.5 154.914 1209.9 154.874C1210.1 154.855 1210.27 154.753 1210.39 154.615C1210.45 154.451 1210.5 154.291 1210.55 154.128L1210.55 154.119L1210.55 154.083C1210.51 153.689 1210.16 153.4 1209.76 153.439C1209.36 153.478 1209.06 153.832 1209.1 154.226L1209.11 154.223Z" fill="#8E84DC"/>
<path d="M1208.64 149.464C1208.68 149.861 1209.03 150.15 1209.43 150.11C1209.83 150.071 1210.12 149.718 1210.08 149.321C1210.04 148.925 1209.69 148.635 1209.29 148.675C1208.89 148.714 1208.6 149.067 1208.64 149.464Z" fill="#8E84DC"/>
<path d="M1208.17 144.702C1208.21 145.099 1208.56 145.388 1208.96 145.349C1209.36 145.309 1209.65 144.956 1209.61 144.56C1209.57 144.163 1209.22 143.874 1208.82 143.913C1208.42 143.953 1208.13 144.306 1208.17 144.702Z" fill="#8E84DC"/>
<path d="M1207.7 139.941C1207.74 140.338 1208.09 140.627 1208.49 140.587C1208.89 140.548 1209.18 140.195 1209.14 139.798C1209.1 139.402 1208.75 139.113 1208.35 139.152C1207.95 139.191 1207.66 139.545 1207.7 139.941Z" fill="#8E84DC"/>
<path d="M1207.23 135.177C1207.27 135.574 1207.62 135.863 1208.02 135.823C1208.42 135.784 1208.71 135.431 1208.67 135.034C1208.63 134.638 1208.28 134.348 1207.88 134.388C1207.48 134.427 1207.19 134.78 1207.23 135.177Z" fill="#8E84DC"/>
<path d="M1206.75 130.416C1206.79 130.81 1207.15 131.107 1207.55 131.067C1207.96 131.027 1208.24 130.667 1208.2 130.273L1208.2 130.237L1208.19 130.229C1208.12 130.089 1208.04 129.948 1207.95 129.799L1207.94 129.791C1207.8 129.675 1207.61 129.612 1207.41 129.632C1207.01 129.672 1206.72 130.025 1206.76 130.418L1206.75 130.416Z" fill="#8E84DC"/>
<path d="M1211.34 146.789C1211.37 147.11 1211.61 147.354 1211.9 147.418C1211.94 146.952 1211.97 146.478 1211.99 146.006C1211.59 146.053 1211.3 146.398 1211.34 146.792L1211.34 146.789Z" fill="#8E84DC"/>
<path d="M1210.87 142.028C1210.91 142.43 1211.27 142.718 1211.67 142.679C1211.76 142.67 1211.85 142.641 1211.92 142.609C1211.91 142.379 1211.88 142.158 1211.86 141.929C1211.84 141.7 1211.82 141.48 1211.79 141.263C1211.71 141.242 1211.62 141.234 1211.52 141.243C1211.13 141.283 1210.83 141.637 1210.87 142.03L1210.87 142.028Z" fill="#8E84DC"/>
<path d="M1210.4 137.266C1210.44 137.668 1210.79 137.949 1211.19 137.918C1211.08 137.446 1210.97 136.998 1210.83 136.549C1210.55 136.67 1210.37 136.956 1210.4 137.266Z" fill="#8E84DC"/>
<path d="M1178.98 66.2868L1179.05 67.0179C1154.17 69.478 1135.91 91.5919 1138.35 116.314C1140.8 141.037 1163.03 159.148 1187.92 156.688C1212.8 154.228 1231.06 132.114 1228.62 107.392L1229.36 107.319C1231.84 132.445 1213.28 154.919 1187.99 157.419C1162.7 159.919 1140.1 141.513 1137.62 116.387C1135.13 91.2612 1153.69 68.787 1178.98 66.2868Z" fill="#8E84DC"/>
<path fill-rule="evenodd" clip-rule="evenodd" d="M1179.79 65.2972L1180.04 67.8295L1179.14 67.9186C1154.75 70.33 1136.86 92.006 1139.25 116.225C1141.65 140.445 1163.43 158.199 1187.83 155.787C1212.22 153.376 1230.11 131.7 1227.72 107.481L1227.63 106.58L1230.17 106.329L1230.26 107.23C1232.79 132.859 1213.86 155.771 1188.08 158.32C1162.29 160.868 1139.25 142.105 1136.72 116.476C1134.18 90.8472 1153.11 67.935 1178.89 65.3862L1179.79 65.2972ZM1178.08 66.3845C1178.38 66.3491 1178.68 66.3166 1178.98 66.2868L1179.05 67.0179C1154.17 69.478 1135.91 91.5919 1138.35 116.314C1140.8 141.037 1163.03 159.148 1187.92 156.688C1212.8 154.228 1231.06 132.114 1228.62 107.392L1229.36 107.319C1229.39 107.62 1229.41 107.92 1229.44 108.22C1231.39 132.98 1212.98 154.949 1187.99 157.419C1162.7 159.919 1140.1 141.513 1137.62 116.387C1135.16 91.5601 1153.25 69.3221 1178.08 66.3845Z" fill="#8E84DC"/>
<path d="M1199.12 97.0467L1204.11 91.0013L1203.05 90.1393L1198.06 96.1847L1199.12 97.0467Z" fill="#8E84DC"/>
<path d="M1210.56 83.1901L1215.55 77.1447L1214.49 76.2826L1209.5 82.328L1210.56 83.1901Z" fill="#8E84DC"/>
<path d="M1202.45 83.9953L1203.32 82.9428L1197.24 77.9916L1196.37 79.0441L1202.45 83.9953Z" fill="#8E84DC"/>
<path d="M1216.38 95.3429L1217.25 94.2904L1211.17 89.3392L1210.3 90.3917L1216.38 95.3429Z" fill="#8E84DC"/>
</g>
</g>
</g>
<defs>
<clipPath id="clip0_7558_1976">
<rect width="1440" height="290" fill="white"/>
</clipPath>
<clipPath id="clip1_7558_1976">
<rect width="343" height="222.633" fill="white" transform="translate(1129)"/>
</clipPath>
</defs>
</svg>
