<svg width="121" height="32" viewBox="0 0 121 32" fill="none" xmlns="http://www.w3.org/2000/svg">
<path d="M6.67188 6.10938V6.11316C6.67188 6.11316 7.13844 9.6845 7.13844 15.7805C7.13844 21.8764 6.67188 25.4516 6.67188 25.4471V25.4509C9.05644 22.92 10.5193 19.521 10.5193 15.7811V15.7792C10.5193 12.0393 9.05644 8.64031 6.67188 6.10938Z" fill="white"/>
<path d="M6.75595 12.5133C6.25593 10.6231 5.31966 8.84218 4.02289 7.22412C2.91047 5.97475 1.56004 4.88447 0.029673 4C1.51395 6.34596 2.51273 10.7336 2.51273 15.7595C2.51273 20.7854 1.51584 25.1629 0.0347248 27.5114C0.0233607 27.5379 0.0113641 27.5644 0 27.5909C0.85357 27.0998 1.65158 26.5448 2.3833 25.9337C4.90929 23.5297 6.57097 20.6446 7.03753 17.5063C7.10445 16.947 7.13918 16.3775 7.13918 15.7999C7.13918 14.6679 7.00659 13.5682 6.75658 12.5126L6.75595 12.5133Z" fill="white"/>
<path d="M95.5221 11.2031C90.7725 11.2031 86.9883 14.9235 86.9883 19.6053C86.9883 24.2871 90.7605 27.9923 95.5101 27.9923C100.26 27.9923 104.032 24.2833 104.032 19.6021C104.032 14.9209 100.271 11.2038 95.5215 11.2038L95.5221 11.2031ZM95.5107 24.2202C92.7814 24.2202 91.0983 22.0983 91.0983 19.6053C91.0983 17.1122 92.7821 14.9872 95.5107 14.9872C98.2394 14.9872 99.9231 17.1091 99.9231 19.6021C99.9231 22.0952 98.2394 24.2202 95.5107 24.2202Z" fill="white"/>
<path d="M35.7884 11.2031C31.0779 11.2031 27.6725 15.0062 27.6719 19.6274C27.6719 24.1488 30.9308 28.0005 35.6627 28.0005C39.077 28.0005 42.1851 25.9531 43.3594 22.7644H39.2153C38.5732 23.6179 37.3156 24.3427 35.6886 24.3427C33.0957 24.3427 31.917 22.4916 31.7806 21.0781H43.6321C43.7016 20.623 43.7394 19.8673 43.7394 19.342C43.7394 14.4474 40.1383 11.2031 35.7884 11.2031ZM31.7901 17.9929C31.7901 16.241 33.5174 14.8218 35.6476 14.8218C37.7777 14.8218 39.5063 16.2416 39.5063 17.9929H31.7895H31.7901Z" fill="white"/>
<path d="M112.225 11.2031C108.225 11.2031 104.992 14.4342 104.992 18.4355V27.5908H109.048L109.049 18.4411C109.049 16.3736 110.518 15.056 112.219 15.056C113.919 15.056 115.38 16.3837 115.378 18.4519L115.369 27.5908H119.46V18.438C119.461 14.4367 116.226 11.2031 112.225 11.2031Z" fill="white"/>
<path d="M73.9575 11.7139C73.5099 11.5043 72.5383 11.2031 71.429 11.2031C68.2313 11.2031 66.9882 13.664 66.8505 13.9367V11.6122H63.0107L63 27.5889L67.0532 27.5908V17.1368C67.1643 16.9209 68.302 14.9803 70.6575 14.9803C71.5382 14.9803 72.34 15.2517 72.5433 15.3509L73.9581 11.7132L73.9575 11.7139Z" fill="white"/>
<path d="M53.0887 11.2031C48.3732 11.2031 44.5391 14.8824 44.5391 19.6754C44.5391 24.1634 47.9009 28.0106 52.4447 28.0011C54.732 27.9967 56.5364 27.0163 57.4746 25.5952V27.5927H61.5808L61.5776 19.3944C61.5757 14.7751 57.7359 11.2031 53.0893 11.2031H53.0887ZM53.0609 24.2738C50.3316 24.2738 48.6478 22.1204 48.6478 19.6274C48.6478 17.1343 50.3322 14.9809 53.0609 14.9809C55.7895 14.9809 57.4739 17.1343 57.4739 19.6274C57.4739 22.1204 55.7895 24.2738 53.0609 24.2738Z" fill="white"/>
<path d="M81.2736 18.0529C78.579 17.4796 77.5013 17.2435 77.5013 16.3275C77.5013 15.2909 78.8827 14.7511 80.3404 14.7511C82.5539 14.7511 84.1903 15.9942 84.3722 16.1324L86.3924 13.1678C85.3583 12.4746 83.3917 11.2031 80.3038 11.2031C76.017 11.2031 73.5245 13.6438 73.5245 16.3654C73.5245 19.2303 76.2853 20.5838 79.4534 21.2511C81.8771 21.7618 82.6196 21.9582 82.6196 22.8136C82.6196 23.9803 81.2382 24.4512 79.8322 24.4512C77.6636 24.4512 75.8642 23.3307 74.772 22.1621L72.5156 25.092C73.457 25.9872 75.8939 27.9992 79.7634 27.9992C83.6329 27.9992 86.6968 25.7985 86.6968 23.0699C86.6968 19.7694 84.4397 18.7252 81.2736 18.0516V18.0529Z" fill="white"/>
<path d="M20.9233 4H12.9205L12.918 27.5909H16.9453L16.9484 19.0909H20.9233C25.6054 19.0909 28.7374 15.858 28.7374 11.5455C28.7374 7.23296 25.6054 4 20.9233 4ZM20.4176 15.2506H16.9484V7.84028H20.4176C23.1797 7.84028 24.6287 9.32261 24.6287 11.5455C24.6287 13.7683 23.1797 15.2506 20.4176 15.2506Z" fill="white"/>
</svg>
